<?xml version="1.0" encoding="UTF-8" standalone="no"?>
<svg
   xmlns:dc="http://purl.org/dc/elements/1.1/"
   xmlns:cc="http://creativecommons.org/ns#"
   xmlns:rdf="http://www.w3.org/1999/02/22-rdf-syntax-ns#"
   xmlns:svg="http://www.w3.org/2000/svg"
   xmlns="http://www.w3.org/2000/svg"
   xmlns:xlink="http://www.w3.org/1999/xlink"
   xmlns:sodipodi="http://sodipodi.sourceforge.net/DTD/sodipodi-0.dtd"
   xmlns:inkscape="http://www.inkscape.org/namespaces/inkscape"
   width="723pt"
   height="273pt"
   viewBox="0 0 723 273"
   version="1.1"
   id="svg2"
   inkscape:version="0.47 r22583"
   sodipodi:docname="newlogo.svg">
  <metadata
     id="metadata262">
    <rdf:RDF>
      <cc:Work
         rdf:about="">
        <dc:format>image/svg+xml</dc:format>
        <dc:type
           rdf:resource="http://purl.org/dc/dcmitype/StillImage" />
        <dc:title></dc:title>
      </cc:Work>
    </rdf:RDF>
  </metadata>
  <defs
     id="defs260">
    <linearGradient
       id="linearGradient3070">
      <stop
         style="stop-color:#010101;stop-opacity:1;"
         offset="0"
         id="stop3072" />
      <stop
         style="stop-color:#010101;stop-opacity:0;"
         offset="1"
         id="stop3074" />
    </linearGradient>
    <inkscape:perspective
       sodipodi:type="inkscape:persp3d"
       inkscape:vp_x="0 : 170.625 : 1"
       inkscape:vp_y="0 : 1000 : 0"
       inkscape:vp_z="903.75 : 170.625 : 1"
       inkscape:persp3d-origin="451.875 : 113.75 : 1"
       id="perspective264" />
    <inkscape:perspective
       id="perspective3116"
       inkscape:persp3d-origin="0.5 : 0.33333333 : 1"
       inkscape:vp_z="1 : 0.5 : 1"
       inkscape:vp_y="0 : 1000 : 0"
       inkscape:vp_x="0 : 0.5 : 1"
       sodipodi:type="inkscape:persp3d" />
    <inkscape:perspective
       id="perspective3116-4"
       inkscape:persp3d-origin="0.5 : 0.33333333 : 1"
       inkscape:vp_z="1 : 0.5 : 1"
       inkscape:vp_y="0 : 1000 : 0"
       inkscape:vp_x="0 : 0.5 : 1"
       sodipodi:type="inkscape:persp3d" />
    <inkscape:perspective
       id="perspective3116-9"
       inkscape:persp3d-origin="0.5 : 0.33333333 : 1"
       inkscape:vp_z="1 : 0.5 : 1"
       inkscape:vp_y="0 : 1000 : 0"
       inkscape:vp_x="0 : 0.5 : 1"
       sodipodi:type="inkscape:persp3d" />
    <inkscape:perspective
       id="perspective3116-8"
       inkscape:persp3d-origin="0.5 : 0.33333333 : 1"
       inkscape:vp_z="1 : 0.5 : 1"
       inkscape:vp_y="0 : 1000 : 0"
       inkscape:vp_x="0 : 0.5 : 1"
       sodipodi:type="inkscape:persp3d" />
    <inkscape:perspective
       id="perspective3116-2"
       inkscape:persp3d-origin="0.5 : 0.33333333 : 1"
       inkscape:vp_z="1 : 0.5 : 1"
       inkscape:vp_y="0 : 1000 : 0"
       inkscape:vp_x="0 : 0.5 : 1"
       sodipodi:type="inkscape:persp3d" />
    <inkscape:perspective
       id="perspective3116-5"
       inkscape:persp3d-origin="0.5 : 0.33333333 : 1"
       inkscape:vp_z="1 : 0.5 : 1"
       inkscape:vp_y="0 : 1000 : 0"
       inkscape:vp_x="0 : 0.5 : 1"
       sodipodi:type="inkscape:persp3d" />
    <inkscape:perspective
       id="perspective3116-7"
       inkscape:persp3d-origin="0.5 : 0.33333333 : 1"
       inkscape:vp_z="1 : 0.5 : 1"
       inkscape:vp_y="0 : 1000 : 0"
       inkscape:vp_x="0 : 0.5 : 1"
       sodipodi:type="inkscape:persp3d" />
    <inkscape:perspective
       id="perspective3367"
       inkscape:persp3d-origin="0.5 : 0.33333333 : 1"
       inkscape:vp_z="1 : 0.5 : 1"
       inkscape:vp_y="0 : 1000 : 0"
       inkscape:vp_x="0 : 0.5 : 1"
       sodipodi:type="inkscape:persp3d" />
    <inkscape:perspective
       id="perspective3389"
       inkscape:persp3d-origin="0.5 : 0.33333333 : 1"
       inkscape:vp_z="1 : 0.5 : 1"
       inkscape:vp_y="0 : 1000 : 0"
       inkscape:vp_x="0 : 0.5 : 1"
       sodipodi:type="inkscape:persp3d" />
    <inkscape:perspective
       id="perspective3424"
       inkscape:persp3d-origin="0.5 : 0.33333333 : 1"
       inkscape:vp_z="1 : 0.5 : 1"
       inkscape:vp_y="0 : 1000 : 0"
       inkscape:vp_x="0 : 0.5 : 1"
       sodipodi:type="inkscape:persp3d" />
  </defs>
  <sodipodi:namedview
     pagecolor="#ffffff"
     bordercolor="#666666"
     borderopacity="1"
     objecttolerance="10"
     gridtolerance="10"
     guidetolerance="10"
     inkscape:pageopacity="0"
     inkscape:pageshadow="2"
     inkscape:window-width="1010"
     inkscape:window-height="569"
     id="namedview258"
     showgrid="false"
     inkscape:zoom="1"
     inkscape:cx="434.49091"
     inkscape:cy="167.48739"
     inkscape:window-x="0"
     inkscape:window-y="0"
     inkscape:window-maximized="0"
     inkscape:current-layer="svg2" />
  <text
     xml:space="preserve"
     style="font-size:200px;font-style:normal;font-variant:normal;font-weight:bold;font-stretch:normal;fill:#000000;fill-opacity:1;stroke:none;font-family:Sans;-inkscape-font-specification:Bitstream Vera Sans Bold"
     x="278.76227"
     y="176.07367"
     id="text3744"><tspan
       sodipodi:role="line"
       id="tspan3746"
       x="278.76227"
       y="176.07367">iop.</tspan></text>
  <path
     d="m 124.5825,11.88942 c 0.009,0.01351 4.40598,0.04581 4.19589,0.0035 -0.1007,0.223818 -0.0215,60.712379 0.0738,63.447107 2.14744,2.131321 2.66038,2.122031 4.6664,0.01071 0.009,-2.714211 -0.27372,-42.496279 -0.0785,-63.469461 0.1025,0.0175 4.20678,-0.005 4.29053,-0.0062 -0.0373,21.046955 -0.0892,60.685624 0.0563,63.474289 2.33421,2.182031 2.83994,2.18203 4.85596,-0.05535 -0.0561,-2.69532 0.14186,-42.323725 0.24934,-63.354714 0.20005,0.0023 3.89029,-0.04723 4.02846,-0.05258 0.0687,0.295364 -0.25365,60.987105 -0.18054,63.486396 2.03673,2.302742 2.80066,2.413454 4.84738,0.01394 -0.0742,-2.524859 0.27665,-63.192863 0.30823,-63.488528 0.72439,-0.0095 3.5259,-0.0278 3.60505,-0.0196 0.12,23.36 0.002,43.448419 0.0215,66.808419 0.0765,5.899899 -4.79919,12.811221 -6.33203,18.500409 -2.31427,10.211883 -3.00497,13.758053 -2.99507,14.712193 -0.54446,1.6959 0.41205,56.58514 0.6728,62.27157 0.66396,12.7474 1.52552,28.23512 1.76716,31.60645 0.37505,10.01645 0.79288,20.48362 1.05645,30.50497 0,8.26311 -0.0824,25.19033 -0.1497,25.65255 -0.11468,0.78784 -0.83936,1.17677 -1.43342,1.22566 -0.20245,0.047 -12.9016,0.0429 -13.93536,0.0429 -1.7882,0.0216 -1.67559,-1.22389 -1.7619,-1.40749 -0.8502,-2.36089 -0.64126,-23.48678 -0.70263,-25.48292 -0.0476,-1.54743 -0.20244,-20.92199 0.29623,-30.62715 0.57956,-11.28041 1.90664,-28.94322 2.13176,-31.52232 0.15012,-4.21004 1.13728,-38.8954 -0.47285,-62.73974 -0.24114,-1.85338 -2.6836,-9.40432 -4.1436,-14.45433 -1.73,-5.94 -5.39,-11.52 -4.99,-17.92 0.02,-22.32 0.009,-44.809375 0.0588,-67.129375 l -0.006,-0.03123 -3.2e-4,-5.5e-5 -7e-5,-10e-6 0,-5e-5 -2e-5,0 0,4e-5 z"
     id="path6"
     sodipodi:nodetypes="ccccccccccccccccccccscccssccccccccccc"
     style="fill-opacity:1;fill:#000000"
     fill="#010101" />
  <path
     d="m 541.75716,199.27232 c 0.97,-0.02 3.19284,-0.0523 4.16284,-0.0723 0.22,1.11 0.44,2.23 0.64,3.35 -1.46763,-0.0244 -3.59202,-0.0863 -4.83659,-0.23893 -0.21,-0.77 -0.0821,-2.23339 -0.0724,-3.02107 l 0.10612,-0.0177 z"
     id="path156"
     sodipodi:nodetypes="cccccc"
     fill="#ffffff" />
  <text
     xml:space="preserve"
     style="font-size:32px;font-style:italic;font-variant:normal;font-weight:bold;font-stretch:normal;text-align:center;line-height:125%;writing-mode:lr-tb;text-anchor:middle;fill:#808080;fill-opacity:1;stroke:none;font-family:Liberation Sans;-inkscape-font-specification:Liberation Sans Bold Italic"
     x="485.16916"
     y="210.5403"
     id="text2966"
     sodipodi:linespacing="125%"><tspan
       sodipodi:role="line"
       id="tspan3753"
       x="485.16916"
       y="210.5403">the intelligent alternative to</tspan><tspan
       sodipodi:role="line"
       id="tspan3755"
       x="485.16916"
       y="250.5403">name-brand political parties.</tspan></text>
  <path
     style="fill:#808080;fill-opacity:0"
     d="M 140,238.6 C 83.44604,238.6 37.6,192.75396 37.6,136.2 37.6,79.646042 83.44604,33.8 140,33.8 c 56.55396,0 102.4,45.846042 102.4,102.4 0,56.55396 -45.84604,102.4 -102.4,102.4 z"
     id="path3773" />
  <text
     xml:space="preserve"
     style="font-size:38.40000153px;font-style:normal;font-variant:normal;font-weight:normal;font-stretch:normal;text-align:start;line-height:100%;writing-mode:lr-tb;text-anchor:start;fill:#000000;fill-opacity:1;stroke:none;font-family:Liberation Sans;-inkscape-font-specification:Liberation Sans"
     id="text3781"
     sodipodi:linespacing="100%"><textPath
       xlink:href="#path3773"
       id="textPath3785"
       dx="0 0 0 0 0 -2.4000001 0 0 0 0 0 0 0 0 0 0 0 0 0 0 0 0 9.6000013">     The  Inanimate      Objects  Party</textPath></text>
</svg>
