<svg width="48" height="48" viewBox="0 0 48 48" xmlns="http://www.w3.org/2000/svg" role="img" aria-label="Solve My Long COVID">
<defs>
<linearGradient id="smlcGrad" x1="6" y1="6" x2="42" y2="42" gradientUnits="userSpaceOnUse">
<stop offset="0" stop-color="#1aa0bf"/><stop offset="1" stop-color="#0e6f86"/>
</linearGradient>
<style>.a{fill:none;stroke:url(#smlcGrad);stroke-width:1.5;stroke-linecap:round;stroke-linejoin:round;}</style>
</defs>
<circle class="a" cx="24" cy="24" r="13" style="stroke-width:1.7"/>
<path class="a" d="M19.0251,11.99l-2.143-5.1738"/>
<path class="a" d="M18.1941,4.757c.2959.7144-.2915,1.6361-1.312,2.0588h0c-1.0205.4227-2.0876.1863-2.3835-.528s.2915-1.6361,1.312-2.0588S17.8982,4.0427,18.1941,4.757Z"/>
<path class="a" d="M14.8076,14.8076l-1.4142-1.4142"/>
<path class="a" d="M34.6066,34.6066l-1.4142-1.4142"/>
<path class="a" d="M11,24H9"/>
<path class="a" d="M39,24H37"/>
<path class="a" d="M14.8076,33.1924l-1.4142,1.4142"/>
<path class="a" d="M34.6066,13.3934l-1.4142,1.4142"/>
<path class="a" d="M31.1179,41.1842,28.9749,36.01"/>
<path class="a" d="M33.5014,41.7122c.2959.7144-.2915,1.6361-1.312,2.0588h0c-1.02.4227-2.0876.1863-2.3835-.528s.2915-1.6361,1.312-2.0588h0c1.02-.4227,2.0876-.1863,2.3835.528Z"/>
<path class="a" d="M11.99,19.0251l-5.1738-2.143"/>
<path class="a" d="M41.1842,31.1179,36.01,28.9749"/>
<path class="a" d="M11.99,28.9749l-5.1738,2.143"/>
<path class="a" d="M41.1842,16.8821,36.01,19.0251"/>
<path class="a" d="M19.0251,36.01l-2.143,5.1738"/>
<path class="a" d="M31.1179,6.8158,28.9749,11.99"/>
<path class="a" d="M24,37v2"/>
<path class="a" d="M25.5,8c0,.5523-.6716,1-1.5,1s-1.5-.4477-1.5-1,.6716-1,1.5-1S25.5,7.4477,25.5,8Z"/>
<path class="a" d="M25.5,40c0,.5523-.6716,1-1.5,1s-1.5-.4477-1.5-1,.6716-1,1.5-1S25.5,39.4477,25.5,40Z"/>
<path class="a" d="M24,9v2"/>
<path class="a" d="M13.747,11.6256c.39.3906.2322,1.182-.3536,1.7678s-1.3772.7441-1.7678.3536-.2322-1.182.3536-1.7678S13.3564,11.2351,13.747,11.6256Z"/>
<path class="a" d="M36.3744,34.253c.39.3906.2322,1.182-.3536,1.7678s-1.3772.7441-1.7677.3536-.2323-1.182.3535-1.7678h0c.5858-.5858,1.3772-.7441,1.7678-.3536Z"/>
<path class="a" d="M8,22.5c.5523,0,1,.6716,1,1.5s-.4477,1.5-1,1.5S7,24.8284,7,24,7.4477,22.5,8,22.5Z"/>
<path class="a" d="M40,22.5c.5523,0,1,.6716,1,1.5s-.4477,1.5-1,1.5-1-.6716-1-1.5S39.4477,22.5,40,22.5Z"/>
<path class="a" d="M11.6256,34.253c.3906-.3905,1.182-.2322,1.7678.3536s.7441,1.3772.3536,1.7678-1.182.2322-1.7678-.3536-.7441-1.3772-.3536-1.7678Z"/>
<path class="a" d="M34.253,11.6256c.3906-.3905,1.182-.2322,1.7678.3536s.7441,1.3772.3536,1.7678-1.182.2322-1.7678-.3536h0C34.0208,12.8076,33.8625,12.0162,34.253,11.6256Z"/>
<path class="a" d="M6.2878,14.4986c.7143.2959.9507,1.363.528,2.3835S5.4714,18.49,4.757,18.1941h0c-.7143-.2959-.9507-1.363-.528-2.3835h0C4.6517,14.79,5.5734,14.2027,6.2878,14.4986Z"/>
<path class="a" d="M43.243,29.8059c.7143.2959.9507,1.363.528,2.3835h0c-.4227,1.02-1.3444,1.6079-2.0588,1.312h0c-.7143-.2959-.9507-1.363-.528-2.3835h0c.4227-1.02,1.3444-1.6079,2.0588-1.312Z"/>
<path class="a" d="M4.757,29.8059c.7144-.2959,1.6361.2915,2.0588,1.312h0c.4227,1.02.1863,2.0876-.528,2.3835S4.6517,33.21,4.229,32.1894s-.1863-2.0876.528-2.3835Z"/>
<path class="a" d="M41.7122,14.4986c.7144-.2959,1.6361.2915,2.0588,1.312h0c.4227,1.02.1863,2.0876-.528,2.3835h0c-.7144.2959-1.6361-.2915-2.0588-1.312h0c-.4227-1.0205-.1863-2.0876.528-2.3835Z"/>
<path class="a" d="M14.4986,41.7122c.2959-.7143,1.363-.9507,2.3835-.528s1.6079,1.3444,1.312,2.0588h0c-.2959.7143-1.363.9507-2.3835.528h0C14.79,43.3483,14.2027,42.4266,14.4986,41.7122Z"/>
<path class="a" d="M29.8059,4.757c.2959-.7143,1.363-.9507,2.3835-.528h0c1.02.4227,1.6079,1.3444,1.312,2.0588h0c-.2959.7143-1.363.9507-2.3835.528h0c-1.02-.4227-1.6079-1.3444-1.312-2.0588Z"/>
<circle class="a" cx="21.8" cy="21.8" r="5" style="stroke-width:2"/>
<path class="a" d="M25.5,25.5 L30,30" style="stroke-width:2.7"/>
</svg>
