<?xml version="1.0" encoding="UTF-8" standalone="no"?>
<svg
   xmlns:dc="http://purl.org/dc/elements/1.1/"
   xmlns:cc="http://creativecommons.org/ns#"
   xmlns:rdf="http://www.w3.org/1999/02/22-rdf-syntax-ns#"
   xmlns:svg="http://www.w3.org/2000/svg"
   xmlns="http://www.w3.org/2000/svg"
   xmlns:xlink="http://www.w3.org/1999/xlink"
   xmlns:sodipodi="http://sodipodi.sourceforge.net/DTD/sodipodi-0.dtd"
   xmlns:inkscape="http://www.inkscape.org/namespaces/inkscape"
   width="723pt"
   height="273pt"
   viewBox="0 0 723 273"
   version="1.1"
   id="svg2"
   inkscape:version="0.47 r22583"
   sodipodi:docname="IOP Logo SVG.svg">
  <metadata
     id="metadata262">
    <rdf:RDF>
      <cc:Work
         rdf:about="">
        <dc:format>image/svg+xml</dc:format>
        <dc:type
           rdf:resource="http://purl.org/dc/dcmitype/StillImage" />
        <dc:title></dc:title>
      </cc:Work>
    </rdf:RDF>
  </metadata>
  <defs
     id="defs260">
    <linearGradient
       id="linearGradient3070">
      <stop
         style="stop-color:#010101;stop-opacity:1;"
         offset="0"
         id="stop3072" />
      <stop
         style="stop-color:#010101;stop-opacity:0;"
         offset="1"
         id="stop3074" />
    </linearGradient>
    <inkscape:perspective
       sodipodi:type="inkscape:persp3d"
       inkscape:vp_x="0 : 170.625 : 1"
       inkscape:vp_y="0 : 1000 : 0"
       inkscape:vp_z="903.75 : 170.625 : 1"
       inkscape:persp3d-origin="451.875 : 113.75 : 1"
       id="perspective264" />
    <inkscape:perspective
       id="perspective3116"
       inkscape:persp3d-origin="0.5 : 0.33333333 : 1"
       inkscape:vp_z="1 : 0.5 : 1"
       inkscape:vp_y="0 : 1000 : 0"
       inkscape:vp_x="0 : 0.5 : 1"
       sodipodi:type="inkscape:persp3d" />
    <inkscape:perspective
       id="perspective3116-4"
       inkscape:persp3d-origin="0.5 : 0.33333333 : 1"
       inkscape:vp_z="1 : 0.5 : 1"
       inkscape:vp_y="0 : 1000 : 0"
       inkscape:vp_x="0 : 0.5 : 1"
       sodipodi:type="inkscape:persp3d" />
    <inkscape:perspective
       id="perspective3116-9"
       inkscape:persp3d-origin="0.5 : 0.33333333 : 1"
       inkscape:vp_z="1 : 0.5 : 1"
       inkscape:vp_y="0 : 1000 : 0"
       inkscape:vp_x="0 : 0.5 : 1"
       sodipodi:type="inkscape:persp3d" />
    <inkscape:perspective
       id="perspective3116-8"
       inkscape:persp3d-origin="0.5 : 0.33333333 : 1"
       inkscape:vp_z="1 : 0.5 : 1"
       inkscape:vp_y="0 : 1000 : 0"
       inkscape:vp_x="0 : 0.5 : 1"
       sodipodi:type="inkscape:persp3d" />
    <inkscape:perspective
       id="perspective3116-2"
       inkscape:persp3d-origin="0.5 : 0.33333333 : 1"
       inkscape:vp_z="1 : 0.5 : 1"
       inkscape:vp_y="0 : 1000 : 0"
       inkscape:vp_x="0 : 0.5 : 1"
       sodipodi:type="inkscape:persp3d" />
    <inkscape:perspective
       id="perspective3116-5"
       inkscape:persp3d-origin="0.5 : 0.33333333 : 1"
       inkscape:vp_z="1 : 0.5 : 1"
       inkscape:vp_y="0 : 1000 : 0"
       inkscape:vp_x="0 : 0.5 : 1"
       sodipodi:type="inkscape:persp3d" />
    <inkscape:perspective
       id="perspective3116-7"
       inkscape:persp3d-origin="0.5 : 0.33333333 : 1"
       inkscape:vp_z="1 : 0.5 : 1"
       inkscape:vp_y="0 : 1000 : 0"
       inkscape:vp_x="0 : 0.5 : 1"
       sodipodi:type="inkscape:persp3d" />
    <linearGradient
       inkscape:collect="always"
       xlink:href="#linearGradient3070"
       id="linearGradient3353"
       gradientUnits="userSpaceOnUse"
       x1="124.49969"
       y1="137.61509"
       x2="512.28967"
       y2="137.6151" />
    <inkscape:perspective
       id="perspective3367"
       inkscape:persp3d-origin="0.5 : 0.33333333 : 1"
       inkscape:vp_z="1 : 0.5 : 1"
       inkscape:vp_y="0 : 1000 : 0"
       inkscape:vp_x="0 : 0.5 : 1"
       sodipodi:type="inkscape:persp3d" />
    <inkscape:perspective
       id="perspective3389"
       inkscape:persp3d-origin="0.5 : 0.33333333 : 1"
       inkscape:vp_z="1 : 0.5 : 1"
       inkscape:vp_y="0 : 1000 : 0"
       inkscape:vp_x="0 : 0.5 : 1"
       sodipodi:type="inkscape:persp3d" />
    <inkscape:perspective
       id="perspective3424"
       inkscape:persp3d-origin="0.5 : 0.33333333 : 1"
       inkscape:vp_z="1 : 0.5 : 1"
       inkscape:vp_y="0 : 1000 : 0"
       inkscape:vp_x="0 : 0.5 : 1"
       sodipodi:type="inkscape:persp3d" />
  </defs>
  <sodipodi:namedview
     pagecolor="#ffffff"
     bordercolor="#666666"
     borderopacity="1"
     objecttolerance="10"
     gridtolerance="10"
     guidetolerance="10"
     inkscape:pageopacity="0"
     inkscape:pageshadow="2"
     inkscape:window-width="1680"
     inkscape:window-height="988"
     id="namedview258"
     showgrid="false"
     inkscape:zoom="22.627417"
     inkscape:cx="687.95517"
     inkscape:cy="32.699288"
     inkscape:window-x="-8"
     inkscape:window-y="-8"
     inkscape:window-maximized="1"
     inkscape:current-layer="svg2" />
  <path
     d="m -1.0266313,17.763316 723.0000013,0 0,273.000004 -723.0000013,0 0,-273.000004 z"
     id="path4"
     style="fill:#ffffff" />
  <path
     fill="#010101"
     d="m 124.5825,11.88942 c 0.009,0.01351 4.40598,0.04581 4.19589,0.0035 -0.1007,0.223818 0.33203,63.470095 0.0738,63.447107 0.45038,-0.06071 4.28673,7.11e-4 4.6664,0.01071 -0.13203,-0.239337 -0.27372,-42.496279 -0.0785,-63.469461 0.1025,0.0175 4.20678,-0.005 4.29053,-0.0062 -0.0373,21.046955 -0.23065,63.231208 0.0563,63.474289 0.92,-0.01 4.46629,0.06071 4.85596,-0.05535 0.15604,-0.361868 0.14186,-42.323725 0.24934,-63.354714 0.20005,0.0023 3.89029,-0.04723 4.02846,-0.05258 0.0687,0.295364 -0.25365,63.249847 -0.18054,63.486396 0.19825,0.04 4.63914,-0.06142 4.84738,0.01394 0.13798,-0.120696 0.27665,-63.192863 0.30823,-63.488528 0.72439,-0.0095 3.5259,-0.0278 3.60505,-0.0196 0.12,23.36 -1.00994,44.51913 -0.91995,67.87913 -0.91136,6.099899 -3.85777,11.74051 -5.39061,17.429698 -2.31427,10.211883 -3.00497,13.758053 -2.99507,14.712193 -0.54446,1.6959 0.41205,56.58514 0.6728,62.27157 0.66396,12.7474 1.52552,28.23512 1.76716,31.60645 0.37505,10.01645 0.79288,20.48362 1.05645,30.50497 0,8.26311 -0.0824,25.19033 -0.1497,25.65255 -0.11468,0.78784 -0.83936,1.17677 -1.43342,1.22566 -0.20245,0.047 -12.9016,0.0429 -13.93536,0.0429 -1.7882,0.0216 -1.67559,-1.22389 -1.7619,-1.40749 -0.8502,-2.36089 -0.64126,-23.48678 -0.70263,-25.48292 -0.0476,-1.54743 -0.20244,-20.92199 0.29623,-30.62715 0.57956,-11.28041 1.90664,-28.94322 2.13176,-31.52232 0.15012,-4.21004 1.13728,-38.8954 -0.47285,-62.73974 -0.24114,-1.85338 -2.6836,-9.40432 -4.1436,-14.45433 -1.73,-5.94 -5.39,-11.52 -4.99,-17.92 0.02,-22.32 0.009,-44.809375 0.0588,-67.129375 l -0.006,-0.03123 -3.2e-4,-5.5e-5 -7e-5,-10e-6 0,-5e-5 -2e-5,0 0,4e-5 z"
     id="path6"
     sodipodi:nodetypes="ccccccccccccccccccccscccssccccccccccc"
     style="fill-opacity:1;fill:url(#linearGradient3353)" />
  <path
     fill="#363636"
     d=" M 72.29 28.99 C 71.62 24.75 75.73 21.68 79.25 20.37 C 83.89 18.09 89.98 21.60 91.00 26.45 C 86.15 29.30 81.01 31.63 76.04 34.25 C 77.77 35.64 79.42 37.90 81.93 37.46 C 86.71 37.32 89.20 32.76 91.45 29.22 C 93.13 32.11 90.96 34.93 89.05 37.06 C 86.42 39.91 82.09 40.06 78.52 39.44 C 74.57 37.67 71.79 33.37 72.29 28.99 Z"
     id="path8" />
  <path
     fill="#ffffff"
     d=" M 79.92 22.57 C 82.97 21.74 85.86 23.09 88.26 24.89 C 83.77 27.44 79.36 30.19 74.52 32.04 C 73.62 28.00 76.17 24.03 79.92 22.57 Z"
     id="path10" />
  <path
     fill="#363636"
     d=" M 200.33 23.16 C 208.48 20.02 217.36 27.91 216.71 36.24 C 216.66 45.16 205.71 51.62 197.96 46.96 C 192.79 44.87 191.02 39.19 190.72 34.09 C 191.84 29.16 195.05 24.19 200.33 23.16 Z"
     id="path12" />
  <path
     fill="#ffffff"
     d=" M 201.43 25.50 C 204.54 25.08 208.11 25.20 210.56 27.44 C 213.57 30.11 215.44 34.64 213.76 38.53 C 212.64 42.83 208.12 45.56 203.87 45.72 C 195.59 46.79 189.87 34.59 195.92 28.88 C 197.39 27.27 199.27 25.96 201.43 25.50 Z"
     id="path14" />
  <path
     fill="#363636"
     d="m 58.697767,26.907487 c 0.723984,0.60967 1.87972,3.024264 3.39972,4.544264 0.831316,-0.07075 2.25183,-1.255416 3.017434,-1.512934 0.532941,-0.17926 1.003332,1.854476 1.58612,1.809331 -0.459289,1.116447 -2.282082,1.551141 -2.453173,2.32939 0.333705,0.496268 9.057386,12.907615 9.325685,13.448198 -0.231822,0.08356 -1.505,1.178537 -1.755704,1.122347 -3.762215,-4.041362 -7.105306,-8.657771 -10.344575,-13.166611 -0.762183,-0.05142 -2.443604,1.144594 -3.135076,1.153883 0.242474,-0.6294 -1.079427,-1.21546 -0.824915,-1.842622 0.238822,-0.588499 2.126509,-1.464901 2.305626,-2.074865 -0.622122,-1.616573 -1.726732,-3.033966 -2.413084,-4.571717 -0.211584,-0.474047 1.425742,-0.733455 1.291942,-1.238664 z"
     id="path16"
     sodipodi:nodetypes="ccsccccccscsc" />
  <path
     fill="#010101"
     d=" M 307.41 37.73 C 318.96 37.75 330.50 37.72 342.04 37.73 C 343.89 37.71 345.69 38.11 347.51 38.42 C 347.47 47.78 347.43 57.15 347.50 66.51 C 334.08 66.62 320.66 66.48 307.24 66.58 C 307.34 56.96 307.06 47.34 307.41 37.73 Z"
     id="path18" />
  <path
     fill="#363636"
     d=" M 209.95 55.99 C 216.21 50.51 222.51 45.06 228.62 39.42 C 230.09 42.64 226.38 44.67 224.84 47.01 C 227.44 47.80 230.44 48.50 231.79 51.13 C 235.16 55.24 233.11 61.21 229.48 64.41 C 226.80 66.70 223.00 67.04 219.66 66.37 C 216.74 65.02 214.95 62.20 213.88 59.28 C 213.44 57.39 211.34 56.97 209.95 55.99 Z"
     id="path20" />
  <path
     fill="#363636"
     d=" M 45.68 44.86 C 48.48 43.05 51.43 41.47 53.95 39.25 C 57.92 43.50 62.26 47.41 65.97 51.91 C 61.49 54.33 60.23 60.87 54.77 61.64 C 49.78 62.74 44.78 59.34 43.29 54.61 C 41.60 51.25 43.62 47.53 45.68 44.86 Z"
     id="path22" />
  <path
     fill="#ffffff"
     d=" M 48.60 45.76 C 51.21 44.63 54.61 43.70 56.67 46.31 C 60.66 49.00 60.89 56.06 56.47 58.43 C 52.53 60.72 47.07 58.07 45.63 53.95 C 45.26 51.00 45.36 47.06 48.60 45.76 Z"
     id="path24" />
  <path
     fill="#ffffff"
     d=" M 221.30 49.93 C 224.60 48.57 228.18 50.54 230.23 53.16 C 230.65 56.02 231.09 59.52 228.81 61.74 C 227.26 64.32 223.93 63.64 221.40 63.57 C 217.55 63.72 215.87 59.21 216.48 55.96 C 216.34 52.99 219.03 51.22 221.30 49.93 Z"
     id="path26" />
  <path
     fill="#363636"
     d=" M 31.99 61.90 C 33.59 60.05 36.08 58.78 38.54 59.62 C 43.50 61.39 47.70 64.70 52.36 67.11 C 51.62 67.66 50.89 68.23 50.17 68.80 C 46.37 66.77 42.84 64.26 38.91 62.49 C 34.76 61.12 30.78 65.94 32.83 69.78 C 35.98 74.29 43.01 74.55 45.09 79.98 C 40.24 78.90 36.49 75.36 31.90 73.65 C 28.05 72.80 24.52 77.12 25.77 80.79 C 29.35 85.11 35.35 86.36 39.05 90.60 C 32.34 90.46 27.30 85.08 21.57 82.19 C 22.63 79.80 23.17 77.22 24.22 74.83 C 25.66 72.78 27.89 71.46 29.52 69.57 C 30.35 67.03 29.79 63.81 31.99 61.90 Z"
     id="path28" />
  <path
     d="m 242.25409,61.140658 c 0.0761,0.46967 1.42492,1.408961 1.40492,1.878631 -1.4939,0.494096 -9.23758,6.756767 -15.15589,10.060759 -1.59994,0.890961 -3.16088,1.333601 -4.71878,2.200698 -0.34911,0.194308 -2.11242,0.09145 -2.53523,-0.0565 -1.02574,-0.444924 -3.54908,-2.200262 -3.38487,-2.70884 0.40242,-0.04759 1.07382,-0.35214 1.92338,-0.162075 1.09744,0.24552 2.46853,0.961779 3.6944,0.421888 7.52346,-3.313467 17.49392,-10.944319 18.77207,-11.634561 z"
     id="path30"
     sodipodi:nodetypes="cccsccssc"
     style="fill:#363636" />
  <path
     fill="#363636"
     d=" M 232.09 76.07 C 236.28 70.49 246.40 71.19 249.23 77.81 C 252.21 82.99 248.76 89.32 243.91 91.87 C 240.74 86.88 238.20 81.51 235.86 76.07 C 233.86 78.05 231.65 80.47 232.48 83.53 C 233.71 87.56 238.01 89.37 240.53 92.48 C 236.19 92.73 232.57 89.57 230.69 85.92 C 230.27 82.64 229.55 78.71 232.09 76.07 Z"
     id="path32" />
  <path
     fill="#ffffff"
     d=" M 238.26 74.40 C 243.33 74.00 248.70 78.41 247.60 83.76 C 247.80 85.79 245.87 86.86 244.68 88.16 C 242.20 83.75 239.82 79.23 238.26 74.40 Z"
     id="path34" />
  <path
     fill="#010101"
     d=" M 408.49 78.99 C 424.63 75.82 442.19 76.47 457.17 83.86 C 470.26 90.56 479.85 103.59 482.47 118.05 C 484.84 131.08 483.93 145.06 477.99 157.06 C 471.11 170.85 456.89 179.72 442.14 182.93 C 433.98 185.01 425.48 184.64 417.14 184.26 C 403.77 182.37 389.74 177.90 380.71 167.28 C 372.03 157.79 367.94 144.73 368.36 132.00 C 367.84 118.22 372.11 103.88 381.82 93.83 C 388.68 85.99 398.43 81.21 408.49 78.99 Z"
     id="path36" />
  <path
     d="m 540.17,91.78 c 4.68,-7.7 13.43,-11.86 21.92,-13.88 12.59,-2.14 26.31,0.48 36.24,8.81 13.49,11.01 17.96,29.55 17.28,46.28 0.22,15.74 -5.76,32.22 -18.4,42.15 -7.57,6.26 -17.36,9.79 -27.21,9.37 -6.09,0.33 -12.27,-0.86 -17.65,-3.78 -3.39,-1.91 -5.82,-5.03 -8.53,-7.73 -0.7,-0.71 -1.4,-1.41 -2.1,-2.1 -0.31991,7.81785 0.14205,22.86672 -0.17529,23.44447 -2.17367,3.06739 -6.30664,5.11392 -7.47471,8.85553 0.47442,0.49232 6.68305,1.41984 7.6536,1.24591 -0.10205,0.0269 0.64739,11.24793 0.44117,11.23069 -0.34064,-0.0285 -9.1766,-0.0658 -13.16477,0.1134 -9.29,-0.26 -18.08431,0.56303 -27.33431,-0.39697 l 0.22876,-2.45331 c 1.36,-3.49 5.25555,0.0903 8.00555,-0.0697 0.52,-5.35 2.88,-10.9 1.31,-16.22 -2.62,-2.22 -6.42,-1.31 -9.51,-0.84 -0.01,-38.54 0,-77.08 0,-115.62 11.86,-0.02 23.73,-0.03 35.61,-0.01 0.03,5.11 -0.08,10.22 0.35,15.31 0.86,-1.22 1.71,-2.45 2.51,-3.71 l 0,-2e-5 z"
     id="path38"
     fill="#010101"
     sodipodi:nodetypes="ccccccccccccsccccccccccc" />
  <path
     fill="#010101"
     d=" M 307.26 80.23 C 320.68 80.13 334.10 80.11 347.51 80.24 C 347.43 113.97 347.46 147.71 347.50 181.44 C 334.10 181.51 320.70 181.43 307.30 181.50 C 307.18 147.74 307.25 113.98 307.26 80.23 Z"
     id="path40" />
  <path
     fill="#363636"
     d="M 15.999519,87.932465 C 16.481763,88.42499 35.821067,95.426695 36.49,95.66 c -0.09,0.5 -0.27,1.52 -0.35,2.02 0.667516,1.189082 -19.951603,-7.158687 -20.74868,-7.528245 0.07,-0.57 0.538199,-1.64929 0.608199,-2.21929 z"
     id="path44"
     sodipodi:nodetypes="ccccc" />
  <path
     fill="#363636"
     d=" M 243.04 96.03 C 247.86 92.51 255.54 94.89 257.59 100.49 C 259.55 104.63 257.64 110.51 253.22 112.16 C 254.06 108.37 257.28 104.33 254.77 100.54 C 252.76 97.00 248.31 96.64 244.77 97.62 C 242.17 99.01 240.77 101.98 241.24 104.89 C 240.83 109.03 244.94 111.05 247.26 113.76 C 243.43 114.37 240.57 111.44 239.00 108.30 C 237.37 103.92 238.88 98.44 243.04 96.03 Z"
     id="path46" />
  <path
     fill="#363636"
     d=" M 17.65 98.68 C 23.69 97.63 30.12 99.23 35.43 102.15 C 30.81 103.59 26.38 101.19 21.86 100.59 C 17.94 100.22 14.28 104.97 16.39 108.54 C 17.10 110.71 19.51 111.31 21.42 111.98 C 24.81 112.93 28.30 113.52 31.65 114.65 C 31.49 115.36 31.33 116.07 31.18 116.78 C 25.24 115.69 19.45 113.81 13.45 113.04 C 13.87 108.14 12.08 101.26 17.65 98.68 Z"
     id="path48" />
  <path
     fill="#ffffff"
     d=" M 420.28 105.01 C 423.93 103.88 428.06 103.82 431.72 104.97 C 438.76 107.65 441.61 115.63 442.72 122.48 C 443.92 132.17 443.72 142.90 438.36 151.41 C 432.08 160.44 416.46 158.66 411.95 148.78 C 408.05 140.56 408.04 130.99 409.20 122.14 C 410.02 115.16 413.43 107.81 420.28 105.01 Z"
     id="path50" />
  <path
     fill="#ffffff"
     d=" M 553.47 107.53 C 559.17 105.14 566.05 107.45 570.06 111.94 C 573.21 115.26 574.36 119.84 575.23 124.20 C 576.22 131.56 575.38 139.32 571.98 145.99 C 567.26 154.77 553.63 156.43 546.91 149.09 C 540.91 143.06 541.29 133.84 541.46 125.97 C 541.44 118.23 545.81 110.05 553.47 107.53 Z"
     id="path52" />
  <path
     fill="#363636"
     d="m 260.05886,115.98464 c 0.36109,0.58431 0.1465,3.13318 0.54294,3.51536 0.55934,-0.004 3.5682,-0.22 5.2082,-0.31 -0.03,0.58 0.0768,1.62393 0.0468,2.20393 -1.28,0.03 -4.68133,0.48426 -5.17351,0.53962 -0.21115,0.41143 0.53331,2.97809 0.25835,3.15606 -0.26451,0.17121 -2.64259,-0.0326 -2.924,0.37935 -0.26896,-0.40147 -0.15431,-2.90891 -0.59545,-3.22432 -5.24,0.3 -14.90013,1.42 -15.89213,1.30536 -0.01,-0.52 -0.03,-1.55 -0.04,-2.07 1.21814,-0.42487 15.13661,-1.40471 15.73058,-1.83285 0.42051,-0.41485 -0.21026,-2.34646 0.30543,-3.27366 0.19201,-0.34522 2.3469,-0.14126 2.53285,-0.38885 l -4e-5,0 -2e-5,0 z"
     id="path54"
     sodipodi:nodetypes="cccccscccccsccc" />
  <path
     fill="#363636"
     d=" M 11.57 121.23 C 17.69 121.27 23.81 121.09 29.93 121.32 C 29.38 122.47 28.80 123.60 28.24 124.74 C 29.33 126.98 30.85 129.28 30.30 131.89 C 28.56 137.71 21.35 142.51 15.44 139.45 C 12.80 138.56 10.28 136.32 10.52 133.31 C 9.63 129.17 12.23 125.37 11.57 121.23 Z"
     id="path56" />
  <path
     fill="#ffffff"
     d=" M 17.31 124.06 C 22.00 121.69 27.80 125.95 27.63 131.00 C 27.87 133.10 25.78 134.25 24.53 135.57 C 21.48 139.07 14.70 138.23 13.29 133.51 C 11.21 129.84 14.17 125.88 17.31 124.06 Z"
     id="path58" />
  <path
     fill="#363636"
     d="m 242.20858,133.89 c -0.41393,-2.39508 4.07142,-5.53 7.24142,-5.46 -1.7,1.9 -3.54,3.67 -5.28,5.53 1.12,1.67 2.16,4.65 4.75,3.51 2.38,-2.13 2.88,-5.6 5.23,-7.76 4.22,-1.06 8.96,2.77 8.19,7.23 -0.97,2.6 -3.68,3.59 -6.01,4.6 1.12,-2.5 3.36,-4.67 3.25,-7.56 -1.18,-0.82 -2.44,-1.51 -3.69,-2.22 -1.91,2.89 -3.07,6.45 -6.06,8.47 -3.74,1.01 -7.76967,-3.9017 -7.62142,-6.34 z"
     id="path60"
     sodipodi:nodetypes="ccccccccccc" />
  <path
     fill="#010101"
     d=" M 636.42 141.35 C 649.84 141.32 663.27 141.31 676.69 141.35 C 676.61 154.73 676.75 168.11 676.62 181.49 C 663.39 181.42 650.16 181.52 636.94 181.45 L 636.49 180.74 C 636.33 167.62 636.51 154.48 636.42 141.35 Z"
     id="path62" />
  <path
     fill="#363636"
     d=" M 13.66 146.63 C 18.49 143.23 24.93 143.36 30.61 143.36 C 26.82 148.06 19.04 144.48 15.10 149.10 C 11.86 152.30 14.86 158.11 19.09 158.28 C 23.88 158.18 28.43 155.76 33.28 156.76 C 32.04 157.70 30.90 158.98 29.30 159.27 C 24.37 160.12 19.41 160.78 14.50 161.70 C 12.60 157.06 9.04 150.85 13.66 146.63 Z"
     id="path64" />
  <path
     fill="#363636"
     d=" M 239.04 154.54 C 240.25 154.15 241.44 153.25 242.77 153.59 C 250.08 155.11 257.11 157.81 264.51 158.90 C 263.21 163.13 263.27 168.54 259.11 171.18 C 255.63 173.99 250.83 171.09 248.69 167.97 C 247.93 164.59 248.50 161.11 248.81 157.71 C 245.46 156.98 242.15 156.01 239.04 154.54 Z"
     id="path66" />
  <path
     fill="#ffffff"
     d=" M 251.50 159.12 C 254.62 159.31 257.70 159.85 260.72 160.67 C 260.74 163.85 260.43 167.61 257.41 169.45 C 255.38 169.73 253.40 169.08 251.46 168.58 C 250.65 165.45 250.80 162.26 251.50 159.12 Z"
     id="path68" />
  <path
     fill="#363636"
     d=" M 10.56 169.66 C 18.50 167.33 26.29 164.49 34.30 162.42 C 34.27 163.30 34.23 164.19 34.20 165.09 C 26.18 167.09 18.51 170.38 10.38 171.91 C 10.42 171.35 10.51 170.23 10.56 169.66 Z"
     id="path70" />
  <path
     fill="#888888"
     d="m 540.73829,194.36254 c 4.12894,-0.0259 3.37737,0.4825 3.6185,0.40663 2.94,0.64 5.61321,0.76083 6.30321,4.48083 0.46,2.01 1.22,5.96 -1.79,6.11 -2.03,0.16 -9.71685,0.2182 -9.93373,0.21265 -0.1,1.22 -0.28839,1.34399 0.1873,2.6347 0.73294,-0.3209 8.23643,-0.45735 10.71643,-0.67735 -0.76722,0.99287 0.0489,1.91102 -0.82894,2.79838 -1.65087,1.66871 -5.6434,2.6982 -6.75713,2.95637 -1.1672,-0.0351 -5.02393,-0.63475 -7.23393,-2.47475 -2.21,-1.86 -1.76,-5.18 -0.95,-7.61 1.23,-3.94 4.54829,-5.48746 6.66829,-8.83746 z"
     id="path72"
     sodipodi:nodetypes="cccccccscccc" />
  <path
     fill="#363636"
     d=" M 236.44 173.60 C 242.33 170.50 250.57 175.37 250.59 182.05 C 251.38 187.38 245.93 190.25 244.09 194.66 C 238.40 191.87 232.66 189.17 227.11 186.12 C 228.21 185.71 229.32 185.31 230.43 184.90 C 230.83 180.64 231.87 175.26 236.44 173.60 Z"
     id="path74" />
  <path
     fill="#ffffff"
     d=" M 238.57 175.62 C 243.47 173.95 248.75 178.81 247.80 183.84 C 247.51 190.29 237.38 191.67 234.68 186.19 C 233.63 183.87 232.46 180.64 234.45 178.49 C 235.48 177.13 237.00 176.23 238.57 175.62 Z"
     id="path76" />
  <path
     fill="#363636"
     d="m 33.98,180.5 c 0.939798,-0.18173 1.477545,-0.6598 2.372685,-0.53964 6.000824,0.80559 10.974242,8.30064 8.607315,14.13964 -2.15,4.58 -7.49,7.42 -12.48,6.19 -4.05,-1.67 -7.52,-5.71 -6.97,-10.33 -0.57,-3.82 2.86,-6.23 5.05,-8.8 4.15,4.33 6.42,9.99 9.59,15.01 1.51,-1.76 2.847868,-3.62929 2.691421,-6.18 C 43.086777,186.51706 37.29,183.2 33.98,180.5 z"
     id="path78"
     sodipodi:nodetypes="csccccccc" />
  <path
     fill="#ffffff"
     d=" M 27.74 189.12 C 28.34 187.48 28.72 185.06 30.99 185.32 C 33.53 189.30 35.72 193.49 37.83 197.71 C 35.78 197.66 33.64 197.93 31.66 197.26 C 28.93 195.61 27.60 192.22 27.74 189.12 Z"
     id="path80" />
  <path
     fill="#888888"
     d=" M 334.53 189.48 C 336.17 189.46 337.82 189.44 339.47 189.42 C 339.38 190.74 339.31 192.06 339.25 193.38 C 337.69 193.47 336.14 193.55 334.59 193.63 C 334.57 192.25 334.55 190.86 334.53 189.48 Z"
     id="path82" />
  <path
     fill="#888888"
     d=" M 403.08 189.41 C 404.58 189.41 406.09 189.41 407.60 189.41 C 405.71 197.13 404.45 204.98 402.71 212.73 C 401.24 212.84 399.77 212.96 398.30 213.08 C 399.86 205.18 401.29 197.26 403.08 189.41 Z"
     id="path84" />
  <path
     fill="#888888"
     d=" M 411.75 189.68 C 413.44 189.55 415.14 189.44 416.84 189.34 C 416.48 190.75 416.12 192.17 415.76 193.59 C 414.30 193.56 412.84 193.54 411.40 193.53 C 411.51 192.24 411.63 190.96 411.75 189.68 Z"
     id="path86" />
  <path
     fill="#888888"
     d=" M 518.43 189.40 C 519.87 189.41 521.31 189.42 522.75 189.43 C 521.51 197.32 519.57 205.07 518.18 212.93 C 516.73 212.91 515.28 212.89 513.84 212.87 C 515.16 205.01 516.75 197.19 518.43 189.40 Z"
     id="path88" />
  <path
     fill="#888888"
     d=" M 618.42 189.50 C 619.88 189.47 621.34 189.44 622.82 189.42 C 622.71 190.77 622.62 192.13 622.53 193.49 C 621.12 193.54 619.73 193.58 618.35 193.63 C 618.36 192.25 618.39 190.87 618.42 189.50 Z"
     id="path90" />
  <path
     fill="#888888"
     d=" M 287.65 189.50 C 288.67 189.48 290.70 189.45 291.72 189.44 C 291.46 191.80 291.19 194.16 290.90 196.52 C 294.03 195.20 297.44 194.98 300.64 196.18 C 300.96 201.79 300.00 207.34 298.75 212.78 C 297.30 212.90 295.86 213.02 294.42 213.14 C 295.07 208.50 296.04 203.89 296.29 199.20 C 294.54 199.22 292.79 199.25 291.05 199.27 C 288.77 203.57 288.09 208.43 287.14 213.14 C 285.76 213.01 284.38 212.89 283.01 212.78 C 284.38 204.98 285.88 197.21 287.65 189.50 Z"
     id="path94" />
  <path
     fill="#888888"
     d=" M 389.15 213.17 C 390.55 205.23 392.15 197.33 393.73 189.43 C 394.78 189.45 396.89 189.49 397.94 189.51 C 396.63 197.42 395.19 205.33 393.15 213.09 C 391.81 213.11 390.48 213.14 389.15 213.17 Z"
     id="path98" />
  <path
     fill="#888888"
     d="m 528.55,190.37 c 0.89,-0.02 1.79,-0.04 2.69,-0.06 -0.39891,3.60329 -0.83024,4.16813 -0.13016,4.23942 1.02547,0.10442 3.30553,0.003 3.9469,0.83213 -0.60186,0.14977 -0.28377,2.36763 -1.10042,2.81972 -0.80397,0.44508 -2.746,-0.88319 -2.93013,0.21991 -0.28296,1.69514 -2.12184,10.81036 -1.63878,14.61545 -2.15,-0.16 -3.04741,0.12337 -5.17741,-0.13663 0.6484,-4.61834 2.19088,-13.75203 2.03508,-15.01679 -0.4618,-1.18652 -2.85698,-0.13329 -2.6445,-0.91924 0.18121,-0.6703 -0.31909,-1.80278 0.5971,-2.83166 0.52997,-0.59516 1.34988,-0.21303 3.45323,0.24227 0.14282,0.0309 0.53028,-0.77483 0.37958,-0.14844 -0.35351,1.46932 0.29038,-3.29728 0.51951,-3.85614 z"
     id="path100"
     sodipodi:nodetypes="ccscsscccssssc" />
  <path
     fill="#363636"
     d=" M 223.06 192.53 C 224.42 192.36 225.96 192.07 227.14 192.99 C 231.45 195.75 235.55 198.83 239.80 201.67 C 238.77 204.05 237.57 206.39 235.73 208.24 C 235.56 206.14 235.51 204.04 235.45 201.93 C 231.38 198.71 226.65 196.35 223.06 192.53 Z"
     id="path108" />
  <path
     fill="#888888"
     d=" M 311.42 195.34 C 314.26 194.81 317.57 195.59 319.26 198.11 C 319.96 200.48 319.67 202.98 319.68 205.42 C 315.51 205.49 311.35 205.47 307.18 205.41 C 307.30 206.62 307.42 207.83 307.55 209.05 C 311.52 209.64 315.21 207.75 319.10 207.29 C 317.62 209.42 316.03 211.72 313.50 212.67 C 310.17 214.05 305.78 213.42 303.49 210.47 C 300.88 204.37 305.20 196.95 311.42 195.34 Z"
     id="path110" />
  <path
     fill="#888888"
     d=" M 343.47 195.31 C 345.62 195.88 347.87 196.88 350.08 195.98 C 352.60 195.06 355.26 195.39 357.75 196.23 C 358.11 201.99 357.01 207.69 355.13 213.12 C 353.82 213.03 352.51 212.94 351.21 212.86 C 352.20 208.30 352.96 203.69 353.40 199.04 C 351.53 199.23 349.63 199.31 347.82 199.79 C 345.42 203.76 345.14 208.55 343.95 212.95 C 342.66 212.92 341.37 212.90 340.08 212.88 C 340.61 206.93 342.13 201.12 343.47 195.31 Z"
     id="path112" />
  <path
     fill="#888888"
     d=" M 371.95 210.81 C 367.78 204.15 374.76 193.13 382.88 195.33 C 387.78 195.67 388.65 201.61 387.42 205.42 C 383.35 205.39 379.28 205.42 375.21 205.45 C 375.30 206.69 375.40 207.93 375.49 209.17 C 379.36 209.62 382.95 207.78 386.75 207.43 C 384.35 212.95 376.29 215.69 371.95 210.81 Z"
     id="path114" />
  <path
     fill="#888888"
     d=" M 411.34 195.57 C 412.68 195.47 414.02 195.37 415.36 195.28 C 414.63 201.19 413.23 206.98 412.05 212.81 C 410.70 212.85 409.36 212.89 408.02 212.93 C 408.44 207.03 409.75 201.25 411.34 195.57 Z"
     id="path116" />
  <path
     fill="#888888"
     d=" M 424.35 195.33 C 428.05 195.29 431.74 195.96 435.45 195.52 C 434.43 201.93 433.32 208.36 431.57 214.61 C 429.48 220.19 421.93 221.69 417.06 218.94 C 415.51 218.00 415.70 215.86 415.15 214.36 C 418.64 214.89 422.01 216.25 425.57 216.31 C 426.88 214.94 427.87 213.31 428.97 211.77 C 425.27 212.41 420.00 214.41 417.58 210.38 C 415.44 204.79 418.55 197.30 424.35 195.33 Z"
     id="path118" />
  <path
     fill="#888888"
     d=" M 437.17 209.66 C 435.46 203.95 438.82 196.17 445.23 195.33 C 448.30 194.65 451.94 195.55 453.54 198.45 C 454.06 200.77 453.71 203.17 453.59 205.52 C 449.22 205.42 444.82 205.29 440.49 205.97 C 441.46 207.17 442.14 208.76 443.54 209.55 C 446.67 209.32 449.48 207.70 452.54 207.07 C 450.98 213.64 440.46 215.93 437.17 209.66 Z"
     id="path120" />
  <path
     fill="#888888"
     d=" M 458.79 195.60 C 462.19 196.26 465.58 195.73 468.96 195.28 C 471.17 194.82 473.72 196.60 473.28 199.01 C 473.17 203.71 471.79 208.25 470.88 212.83 C 469.59 212.88 468.30 212.93 467.02 212.99 C 467.35 208.50 468.63 204.10 468.57 199.59 C 466.65 199.22 463.60 198.50 462.63 200.77 C 460.72 204.51 460.58 208.81 459.68 212.84 C 458.20 212.87 456.73 212.90 455.27 212.93 C 456.18 207.10 457.43 201.33 458.79 195.60 Z"
     id="path122" />
  <path
     fill="#888888"
     d=" M 555.79 195.21 C 558.76 196.54 561.89 196.23 564.89 195.18 C 564.80 196.26 564.73 197.34 564.66 198.43 C 562.71 199.57 560.40 200.29 558.88 202.01 C 557.31 205.33 557.01 209.07 556.35 212.64 C 554.92 212.73 553.50 212.83 552.09 212.92 C 552.71 206.91 554.05 200.99 555.79 195.21 Z"
     id="path124" />
  <path
     fill="#888888"
     d=" M 568.64 195.77 C 573.15 196.04 578.32 194.03 582.34 196.64 C 583.63 202.09 581.62 207.55 580.53 212.84 C 579.08 212.83 577.63 212.81 576.19 212.79 C 576.97 208.53 578.17 204.32 578.41 199.98 C 576.45 198.42 572.41 198.90 571.74 201.67 C 570.35 205.32 570.05 209.26 569.17 213.04 C 567.78 212.97 566.40 212.91 565.03 212.85 C 566.12 207.14 566.56 201.23 568.64 195.77 Z"
     id="path126" />
  <path
     fill="#888888"
     d=" M 585.85 200.43 C 587.98 197.94 590.49 195.09 594.09 195.16 C 596.83 195.04 601.55 195.24 601.45 199.01 C 601.35 203.70 599.81 208.23 599.38 212.90 C 596.47 212.59 593.52 212.16 590.63 212.83 C 588.80 213.13 586.30 213.82 585.19 211.81 C 583.28 209.35 584.80 205.62 587.36 204.31 C 590.28 202.84 593.56 202.39 596.72 201.67 C 596.69 200.95 596.65 199.50 596.63 198.78 C 593.06 199.44 589.53 201.76 585.85 200.43 Z"
     id="path128" />
  <path
     fill="#888888"
     d=" M 617.63 195.48 C 619.05 195.46 620.46 195.42 621.89 195.39 C 621.22 201.30 619.86 207.09 618.60 212.88 C 617.13 212.98 615.68 213.08 614.23 213.17 C 615.15 207.24 616.47 201.37 617.63 195.48 Z"
     id="path130" />
  <path
     fill="#888888"
     d=" M 648.44 195.59 C 651.45 194.91 655.54 194.66 657.38 197.71 C 659.05 199.88 658.34 202.75 658.41 205.27 C 653.89 205.46 649.36 205.40 644.85 205.61 C 645.78 207.06 646.36 209.27 648.39 209.48 C 651.57 209.01 654.55 207.52 657.80 207.33 C 654.90 213.05 645.79 215.92 641.71 209.87 C 640.23 204.39 642.83 197.53 648.44 195.59 Z"
     id="path132" />
  <path
     fill="#888888"
     d=" M 687.43 195.56 C 690.48 194.89 694.53 194.58 696.60 197.45 C 701.21 203.47 695.40 213.43 688.02 213.33 C 683.31 214.19 678.68 209.04 680.15 204.48 C 681.02 200.64 683.60 196.90 687.43 195.56 Z"
     id="path134" />
  <path
     fill="#363636"
     d=" M 43.64 201.65 C 46.36 199.43 48.90 196.28 52.74 196.36 C 49.48 200.32 45.11 203.21 42.02 207.31 C 39.12 211.76 46.22 217.90 50.12 214.27 C 53.94 211.59 56.79 207.35 61.65 206.43 C 59.77 210.15 56.17 212.42 53.16 215.13 C 49.70 218.17 46.18 221.14 42.78 224.23 C 42.28 223.76 41.78 223.30 41.28 222.84 C 42.55 221.30 43.87 219.79 45.12 218.23 C 41.83 216.28 38.15 213.23 38.52 209.01 C 38.48 205.70 41.42 203.62 43.64 201.65 Z"
     id="path136" />
  <path
     fill="#777777"
     d=" M 330.99 212.67 C 331.94 207.03 332.41 201.21 334.29 195.80 C 335.48 195.63 336.67 195.51 337.87 195.43 C 337.48 201.31 336.05 207.04 334.87 212.79 C 333.57 212.75 332.28 212.71 330.99 212.67 Z"
     id="path138" />
  <path
     fill="#888888"
     d="m 501.7,195.81 c 3.09,-0.47 6.89,-1.38 9.51,0.84 1.57,5.32 -0.79,10.87 -1.31,16.22 -2.75,0.16 -8.00673,-0.0615 -8.09393,-0.12473 -2.48,-1.26 -5.86607,-0.10527 -7.05607,-2.95527 -0.1,-4.22 4.18,-6.02 7.07,-8.13 -1.58,-0.16 -3.14,-0.3 -4.7,-0.45 0.72,-2.35 2.36,-4.3 4.58,-5.4 z"
     id="path140"
     sodipodi:nodetypes="cccccccc" />
  <path
     fill="#888888"
     d=" M 625.33 195.57 C 626.36 195.51 628.42 195.39 629.45 195.33 C 630.31 199.51 630.61 203.76 631.05 208.00 C 633.11 204.36 634.60 200.40 636.96 196.94 C 637.96 195.48 639.99 195.71 641.50 195.22 C 639.12 201.51 635.24 207.04 631.82 212.77 C 630.56 212.78 629.30 212.79 628.05 212.80 C 627.15 207.06 626.16 201.32 625.33 195.57 Z"
     id="path142" />
  <path
     fill="#ffffff"
     d=" M 307.83 202.33 C 308.95 198.90 312.49 199.09 315.49 199.05 C 315.43 199.75 315.32 201.15 315.27 201.84 C 313.19 203.22 310.23 202.12 307.83 202.33 Z"
     id="path144" />
  <path
     fill="#ffffff"
     d=" M 376.40 199.97 C 378.76 199.49 381.16 199.26 383.57 199.20 C 383.57 200.26 383.58 201.33 383.60 202.40 C 381.15 202.39 378.71 202.40 376.26 202.48 C 376.30 201.85 376.37 200.60 376.40 199.97 Z"
     id="path146" />
  <path
     fill="#ffffff"
     d=" M 423.38 200.39 C 424.86 198.53 427.52 199.57 429.56 199.35 C 429.42 201.80 429.83 204.48 428.71 206.75 C 427.10 208.62 423.80 210.59 421.98 207.90 C 420.82 205.46 421.66 202.36 423.38 200.39 Z"
     id="path148" />
  <path
     fill="#ffffff"
     d=" M 441.73 201.19 C 443.83 199.37 446.55 199.13 449.21 199.23 C 449.36 200.03 449.67 201.64 449.83 202.44 C 447.08 202.44 444.31 202.17 441.73 201.19 Z"
     id="path150" />
  <path
     fill="#010101"
     d=" M 502.14 199.36 C 503.99 199.29 505.85 199.23 507.71 199.19 C 507.61 199.80 507.41 201.02 507.31 201.63 C 505.55 202.07 503.79 202.48 502.04 202.89 C 502.06 201.71 502.10 200.53 502.14 199.36 Z"
     id="path152" />
  <path
     fill="#363636"
     d="m 539.75,199.75 c 0.76,-0.16 1.22,-0.31 1.99,-0.46 0.22,0.77 -0.25625,2.25625 -0.0462,3.02625 -1.45048,0.008 -0.61537,0.11979 -3.24375,-0.0863 0.25,-0.62 1.05,-1.86 1.3,-2.48 l -5e-5,0 z"
     id="path154"
     sodipodi:nodetypes="cccccc" />
  <path
     fill="#ffffff"
     d="m 541.75716,199.27232 c 0.97,-0.02 3.19284,-0.0523 4.16284,-0.0723 0.22,1.11 0.44,2.23 0.64,3.35 -1.46763,-0.0244 -3.59202,-0.0863 -4.83659,-0.23893 -0.21,-0.77 -0.0821,-2.23339 -0.0724,-3.02107 l 0.10612,-0.0177 z"
     id="path156"
     sodipodi:nodetypes="cccccc" />
  <path
     fill="#ffffff"
     d=" M 645.02 202.09 C 646.86 200.88 648.55 198.88 650.98 199.17 C 653.11 199.01 654.46 200.95 656.03 202.07 C 652.36 202.32 648.68 202.44 645.02 202.09 Z"
     id="path158" />
  <path
     fill="#ffffff"
     d=" M 686.86 199.80 C 688.81 199.07 690.96 199.29 693.01 199.11 C 693.43 202.22 694.69 206.48 691.36 208.46 C 689.16 210.37 685.57 209.89 684.60 206.92 C 684.46 204.40 685.10 201.68 686.86 199.80 Z"
     id="path160" />
  <path
     fill="#363636"
     d="m 215.91,201.85 c 0.49,-0.37 1.49,-1.1 1.99,-1.46 0.69911,0.48299 12.10302,10.18553 12.12,10.39 1.06,-0.92 1.88251,-1.58251 2.95251,-2.48251 0.44728,0.25078 1.5081,1.35282 1.3441,1.50741 -0.26646,0.25116 -2.36381,1.92821 -2.45895,2.4111 -0.10138,0.51458 5.03515,5.07446 5.02975,5.13048 -0.0145,0.15044 -0.97329,1.2469 -1.05201,1.3503 -0.22709,-0.17273 -5.4901,-4.55972 -5.9976,-4.68483 -0.097,0.26807 -2.21323,1.94333 -2.43458,2.13089 0.005,-0.24467 -1.16677,-1.03817 -1.34244,-1.37281 -0.10832,-0.20634 1.95661,-1.6608 1.90813,-2.31254 -3.47,-3.9 -11.33089,-9.8745 -12.05891,-10.60749 z"
     id="path162"
     sodipodi:nodetypes="ccccssscccscc" />
  <path
     fill="#363636"
     d="m 204.15,205.32 c 0.48,0.11 1.09645,-0.37711 1.57645,-0.26711 0.96,2.03 1.66355,5.43711 3.88355,6.53711 5.35,3.06 11.17,5.25 16.36,8.62 -1.34,0.31 -2.71,1.58 -4.08,0.71 -4.01,-1.81 -7.83,-4.03 -11.84,-5.82 0.98,4.53 2.8,8.8 4.32,13.16 0.27,1.3 0.34,3.32 -1.43,3.4 -2.28,-4.14 -3.41,-8.78 -5.02,-13.2 -1.33,-4.37 -3.75,-8.47 -3.77,-13.14 z"
     id="path164"
     sodipodi:nodetypes="cccccccccc" />
  <path
     fill="#010101"
     d=" M 502.16 205.26 C 503.85 205.28 505.55 205.30 507.26 205.36 C 505.95 207.33 504.23 208.97 502.16 210.11 C 502.13 208.49 502.14 206.87 502.16 205.26 Z"
     id="path166" />
  <path
     fill="#ffffff"
     d=" M 588.73 206.85 C 591.14 205.76 593.67 204.95 596.29 204.55 C 595.98 207.92 593.20 209.29 590.29 210.07 C 589.76 208.99 589.24 207.92 588.73 206.85 Z"
     id="path170" />
  <path
     fill="#363636"
     d="m 53.21,230.06 c 5.02,-5.12 8.83,-11.3 14.02,-16.25 0.27,0.51 1.481751,1.07038 1.751751,1.58038 C 64.771751,220.90038 59.39,226.49 55.1,231.95 c 0.475857,0.77214 3.014978,3.18991 3.324077,4.0431 0.186465,0.51469 -1.536847,1.04971 -1.373316,1.40297 -0.223425,-0.14044 -9.093173,-8.06876 -9.52934,-8.53787 0.365781,0.0533 1.682543,-1.56977 1.963043,-1.62131 0.272184,-0.05 2.777486,2.56411 3.725536,2.82311 z"
     id="path172"
     sodipodi:nodetypes="ccccsccsc" />
  <path
     fill="#010101"
     d=" M 229.30 215.43 C 229.40 215.41 229.61 215.38 229.71 215.37 C 229.61 215.38 229.40 215.41 229.30 215.43 Z"
     id="path174" />
  <path
     fill="#888888"
     d=" M 517.77 227.72 C 519.09 227.61 520.41 227.51 521.74 227.41 C 522.07 228.80 522.39 230.20 522.71 231.60 C 520.90 231.62 519.10 231.62 517.31 231.63 C 517.46 230.32 517.61 229.02 517.77 227.72 Z"
     id="path176" />
  <path
     fill="#888888"
     d=" M 584.12 227.30 C 585.37 227.54 586.63 227.79 587.89 228.05 C 587.13 236.02 585.12 243.78 583.34 251.56 C 582.35 251.46 580.36 251.25 579.36 251.15 C 580.88 243.18 581.95 235.12 584.12 227.30 Z"
     id="path178" />
  <path
     fill="#888888"
     d=" M 663.49 231.80 C 663.02 228.54 666.00 227.66 668.52 227.04 C 668.49 228.53 668.48 230.03 668.48 231.53 C 666.81 231.62 665.14 231.71 663.49 231.80 Z"
     id="path180" />
  <path
     fill="#888888"
     d=" M 367.94 227.64 C 369.20 227.68 370.45 227.71 371.72 227.75 C 371.56 230.07 371.39 232.39 371.23 234.71 C 373.56 234.15 375.89 233.61 378.25 233.14 C 384.50 237.90 381.63 248.53 374.93 251.32 C 370.99 251.59 367.03 251.10 363.09 251.13 C 364.59 243.28 365.99 235.40 367.94 227.64 Z"
     id="path182" />
  <path
     fill="#888888"
     d=" M 449.96 227.78 C 451.31 227.76 452.66 227.76 454.02 227.76 C 453.02 235.73 451.40 243.63 449.38 251.39 C 445.94 250.83 442.49 251.20 439.06 251.40 C 436.91 251.68 435.39 249.60 434.68 247.86 C 433.45 242.29 436.19 235.32 442.04 233.69 C 444.24 233.10 446.26 234.40 448.22 235.18 C 448.82 232.72 449.41 230.25 449.96 227.78 Z"
     id="path184" />
  <path
     fill="#888888"
     d=" M 504.19 251.47 C 505.73 243.55 506.77 235.47 509.14 227.74 C 510.40 227.64 511.67 227.59 512.94 227.58 C 512.09 235.65 510.16 243.55 508.46 251.47 C 507.03 251.46 505.61 251.46 504.19 251.47 Z"
     id="path186" />
  <path
     fill="#888888"
     d=" M 538.11 228.14 C 539.56 227.94 541.01 227.75 542.47 227.58 C 542.37 228.97 542.28 230.36 542.19 231.76 C 540.66 231.77 539.13 231.79 537.61 231.82 C 537.76 230.59 537.93 229.37 538.11 228.14 Z"
     id="path188" />
  <path
     fill="#888888"
     d=" M 334.28 241.12 C 335.48 234.97 343.13 231.42 348.56 234.53 C 351.68 236.38 350.55 240.55 350.91 243.56 C 346.53 243.66 342.16 243.62 337.79 243.91 C 338.47 245.45 338.85 247.34 340.39 248.31 C 343.55 247.57 346.48 245.50 349.87 246.38 C 347.19 249.92 343.09 252.79 338.45 251.41 C 333.83 250.60 332.55 244.91 334.28 241.12 Z"
     id="path194" />
  <path
     fill="#888888"
     d=" M 386.38 234.28 C 389.84 234.54 393.31 234.33 396.71 233.57 C 396.17 237.14 392.59 238.24 390.20 240.32 C 388.32 243.73 388.08 247.75 387.22 251.49 C 385.81 251.40 384.40 251.31 382.99 251.23 C 384.02 245.56 385.16 239.91 386.38 234.28 Z"
     id="path196" />
  <path
     fill="#888888"
     d=" M 267.12 251.39 C 267.50 245.34 268.59 239.32 270.51 233.57 C 273.00 234.51 275.67 235.02 278.24 234.00 C 280.54 232.95 282.67 234.22 284.66 235.33 C 284.62 240.78 283.40 246.10 282.03 251.35 C 280.70 251.34 279.37 251.32 278.05 251.31 C 278.78 246.71 279.78 242.15 279.93 237.48 C 277.93 237.65 275.33 237.02 274.00 238.97 C 271.93 242.67 271.69 247.05 270.95 251.14 C 269.67 251.23 268.40 251.31 267.12 251.39 Z"
     id="path198" />
  <path
     fill="#888888"
     d=" M 287.82 239.89 C 289.18 233.24 300.17 230.50 303.13 237.12 C 302.85 241.93 301.48 246.61 301.15 251.43 C 296.23 249.22 291.23 252.14 286.29 250.74 C 286.57 248.21 285.54 244.73 288.13 243.12 C 291.21 241.22 294.90 240.81 298.38 240.13 C 298.47 239.14 298.56 238.15 298.65 237.17 C 294.99 237.85 291.45 239.06 287.82 239.89 Z"
     id="path200" />
  <path
     fill="#888888"
     d=" M 308.69 233.88 C 312.56 235.36 316.54 233.27 320.40 234.37 C 324.40 235.92 329.71 230.92 332.17 236.20 C 332.35 241.32 330.36 246.22 330.05 251.31 C 328.55 251.30 327.05 251.29 325.55 251.27 C 326.36 246.59 327.40 241.94 327.67 237.20 C 325.90 237.78 322.97 237.02 322.29 239.26 C 320.87 243.22 320.42 247.45 319.29 251.49 C 318.26 251.44 316.21 251.35 315.19 251.31 C 316.25 246.63 316.96 241.88 316.81 237.07 C 315.48 237.34 314.14 237.54 312.86 237.95 C 310.23 241.72 310.21 246.60 309.46 250.99 C 308.09 251.22 306.74 251.44 305.38 251.67 C 305.41 245.58 307.03 239.68 308.69 233.88 Z"
     id="path202" />
  <path
     fill="#888888"
     d=" M 397.25 239.67 C 398.91 232.82 407.83 231.78 412.68 235.89 C 411.73 240.99 411.02 246.14 411.13 251.34 C 407.43 250.76 403.70 250.53 400.02 251.43 C 396.41 252.58 394.11 247.24 396.27 244.65 C 398.54 240.59 404.15 241.89 407.52 239.51 C 408.88 237.84 406.55 237.18 405.24 237.59 C 402.55 238.18 399.95 239.15 397.25 239.67 Z"
     id="path204" />
  <path
     fill="#888888"
     d=" M 414.14 251.13 C 415.33 245.10 415.94 238.87 418.50 233.21 C 419.78 233.83 421.07 234.46 422.36 235.10 C 425.36 233.87 429.38 232.19 431.85 235.33 C 433.10 240.63 430.52 245.93 429.93 251.18 C 428.46 251.25 427.00 251.32 425.54 251.39 C 426.34 246.69 427.39 242.02 427.65 237.26 C 425.52 237.65 422.39 236.96 421.37 239.45 C 419.79 243.33 419.34 247.55 418.24 251.57 C 416.86 251.43 415.50 251.28 414.14 251.13 Z"
     id="path206" />
  <path
     fill="#888888"
     d="m 467.42,234.32 c 5.466,0.54765 14.23862,-3.35871 15.23,4.68 -0.09,4.79 -2.17,10.24 -6.9,12.18 -2.67,1.07 -5.34,-0.48 -7.79,-1.43 -0.29,2.84 -0.58,5.67 -0.89,8.51 -1.49,0 -2.98,0.01 -4.46,0 1.35,-8.02 2.65,-16.1 4.81,-23.94 z"
     id="path208"
     sodipodi:nodetypes="ccccccc" />
  <path
     fill="#888888"
     d=" M 492.24 233.81 C 495.84 232.66 500.71 233.95 502.08 237.80 C 504.48 245.80 495.22 254.73 487.42 250.76 C 480.76 246.20 485.28 235.40 492.24 233.81 Z"
     id="path210" />
  <path
     fill="#888888"
     d=" M 517.04 233.79 C 518.36 233.82 519.68 233.86 521.01 233.90 C 520.50 239.76 518.90 245.44 518.02 251.23 C 516.55 251.28 515.09 251.31 513.63 251.34 C 514.45 245.43 515.88 239.64 517.04 233.79 Z"
     id="path212" />
  <path
     fill="#888888"
     d=" M 537.17 234.14 C 538.60 234.01 540.03 233.89 541.48 233.78 C 540.58 239.66 539.15 245.45 538.12 251.31 C 536.75 251.28 535.39 251.25 534.04 251.22 C 534.60 245.45 535.84 239.78 537.17 234.14 Z"
     id="path214" />
  <path
     fill="#888888"
     d="m 543.55,248.34 c -2.68,-6.56 3.11,-15.28 10.38,-14.89 1.79,-0.04 3.43,0.89 4.81,1.95 0.41277,0.80096 1.54677,1.84149 1.69762,2.72411 0.15613,0.91356 -0.60475,1.77663 -0.75511,2.36376 -0.85449,-0.44741 -2.74461,-1.44419 -4.27037,-2.23865 -1.46598,-0.76334 -3.13141,-0.98363 -4.81214,-0.70922 -3.56,2.61 -4.08071,8.62853 -1.50464,10.86574 2.62,-1.04 4.93464,-2.20574 7.11464,-3.99574 0.61,0.42 1.83,1.26 2.45,1.68 -1.92,2.07 -3.62,4.89 -6.65,5.34 -3.07,0.56 -7.15,0.27 -8.46,-3.09 z"
     id="path216"
     sodipodi:nodetypes="cccscscccccc" />
  <path
     fill="#888888"
     d=" M 562.60 239.67 C 563.70 233.04 573.25 231.28 577.35 236.14 C 577.77 241.38 575.78 246.41 575.33 251.58 C 571.27 250.08 567.14 251.17 563.02 251.51 C 558.95 249.97 560.16 243.99 563.54 242.46 C 566.57 241.16 569.87 240.68 573.08 240.03 C 572.88 239.30 572.47 237.84 572.27 237.12 C 569.01 237.85 565.84 238.91 562.60 239.67 Z"
     id="path218" />
  <path
     fill="#888888"
     d=" M 601.18 234.43 C 604.46 234.32 607.72 233.83 611.00 233.63 C 614.23 233.47 617.00 236.73 616.63 239.89 C 616.21 243.82 614.61 247.92 611.41 250.40 C 608.62 252.46 605.05 251.18 602.02 250.55 C 601.66 252.96 601.51 255.43 600.67 257.74 C 599.29 258.07 597.91 258.34 596.52 258.56 C 597.65 250.44 599.42 242.43 601.18 234.43 Z"
     id="path220" />
  <path
     fill="#888888"
     d=" M 620.00 239.66 C 620.15 232.62 630.39 231.56 634.36 236.06 C 634.47 241.30 632.61 246.34 632.11 251.54 C 628.09 250.43 624.07 251.33 620.02 251.44 C 615.89 250.32 617.13 244.80 619.85 242.84 C 622.79 241.24 626.17 240.82 629.41 240.18 C 629.47 239.16 629.54 238.13 629.61 237.11 C 626.35 237.73 623.20 238.80 620.00 239.66 Z"
     id="path222" />
  <path
     fill="#888888"
     d=" M 639.86 233.86 C 642.74 234.74 645.72 234.88 648.57 233.77 C 648.57 234.60 648.56 236.26 648.55 237.09 C 646.54 238.16 644.18 238.85 642.69 240.67 C 641.16 244.02 640.86 247.78 640.07 251.34 C 638.69 251.34 637.32 251.33 635.96 251.32 C 636.97 245.47 637.36 239.31 639.86 233.86 Z"
     id="path224" />
  <path
     fill="#888888"
     d=" M 663.31 233.93 C 664.69 233.86 666.09 233.80 667.49 233.75 C 666.53 239.65 665.38 245.51 664.14 251.36 C 662.77 251.33 661.40 251.31 660.04 251.29 C 660.72 245.43 661.98 239.67 663.31 233.93 Z"
     id="path226" />
  <path
     fill="#888888"
     d=" M 672.18 236.20 C 675.32 233.33 680.34 232.32 683.91 235.06 C 686.75 236.91 686.28 240.71 685.85 243.60 C 681.60 243.70 677.36 243.70 673.12 243.65 C 673.17 244.55 673.28 246.35 673.33 247.25 C 677.12 248.07 680.70 246.43 684.36 245.69 C 682.74 251.02 676.02 253.25 671.34 250.64 C 666.80 247.11 668.56 239.74 672.18 236.20 Z"
     id="path228" />
  <path
     fill="#888888"
     d=" M 692.60 234.47 C 696.17 232.33 700.35 233.67 703.66 235.62 C 703.60 236.68 703.49 238.81 703.44 239.87 C 700.09 238.62 696.68 237.12 693.01 237.65 C 693.21 238.27 693.60 239.51 693.79 240.13 C 696.81 240.78 699.77 241.66 702.70 242.65 C 702.51 244.61 703.14 247.02 701.54 248.54 C 698.89 251.98 693.99 252.02 690.13 251.19 C 687.72 250.10 686.78 247.38 686.61 244.94 C 690.29 245.99 693.84 247.52 697.66 248.06 C 697.68 247.33 697.73 245.87 697.75 245.14 C 694.89 244.40 691.92 243.87 689.32 242.45 C 687.13 239.41 689.51 235.63 692.60 234.47 Z"
     id="path230" />
  <path
     fill="#ffffff"
     d=" M 338.57 240.39 C 340.27 237.68 343.28 237.21 346.24 237.41 C 346.43 238.48 346.63 239.55 346.84 240.62 C 344.08 240.58 341.32 240.54 338.57 240.39 Z"
     id="path232" />
  <path
     fill="#ffffff"
     d=" M 441.83 237.85 C 443.37 237.46 444.96 237.40 446.54 237.24 C 447.00 240.09 447.74 243.36 445.68 245.80 C 444.41 248.36 441.33 247.42 439.09 247.24 C 439.38 244.03 438.75 239.94 441.83 237.85 Z"
     id="path234" />
  <path
     fill="#ffffff"
     d=" M 474.27 237.41 C 475.48 237.22 476.82 237.41 477.50 238.59 C 478.26 241.87 477.60 246.26 474.24 247.85 C 472.01 249.20 469.07 246.41 469.58 244.05 C 470.01 241.35 471.17 237.92 474.27 237.41 Z"
     id="path236" />
  <path
     fill="#ffffff"
     d=" M 491.61 237.66 C 493.65 237.12 495.75 237.70 497.79 238.00 C 497.70 241.48 497.89 246.30 493.98 247.84 C 492.06 248.98 490.10 247.35 488.31 246.75 C 488.88 243.65 488.59 239.54 491.61 237.66 Z"
     id="path238" />
  <path
     fill="#ffffff"
     d=" M 674.53 238.12 C 676.75 237.81 678.98 237.59 681.21 237.39 C 681.37 238.44 681.53 239.49 681.71 240.55 C 679.24 240.57 676.77 240.60 674.30 240.64 C 674.36 240.01 674.48 238.75 674.53 238.12 Z"
     id="path240" />
  <path
     fill="#ffffff"
     d=" M 371.45 238.25 C 372.82 237.26 375.38 236.76 376.46 238.40 C 377.74 241.63 376.52 245.73 373.56 247.60 C 372.12 247.96 370.24 247.95 369.53 246.40 C 368.80 243.58 369.25 240.31 371.45 238.25 Z"
     id="path242" />
  <path
     fill="#ffffff"
     d=" M 605.75 238.60 C 607.36 237.09 609.69 237.79 611.67 237.67 C 611.48 240.39 612.01 243.35 610.81 245.89 C 608.98 247.91 605.04 248.81 603.56 245.91 C 603.37 243.32 604.19 240.67 605.75 238.60 Z"
     id="path244" />
  <path
     fill="#888888"
     d="m 352.26,240.54 c 3.21,-0.16 9.265,0.135 9.65,0.09 -0.395,0.53 -0.025,3.705 -0.19,4.005 -0.83,-0.01 -6.79,-0.075 -9.33,-0.015 -0.03,-1.02 -0.1,-3.06 -0.13,-4.08 z"
     id="path246"
     sodipodi:nodetypes="ccccc" />
  <path
     fill="#ffffff"
     d=" M 291.30 244.46 C 293.49 243.51 295.90 243.36 298.25 243.16 C 297.43 245.54 295.83 247.96 292.96 247.65 C 290.80 248.60 289.86 245.80 291.30 244.46 Z"
     id="path248" />
  <path
     fill="#ffffff"
     d=" M 400.82 244.66 C 402.81 243.59 405.11 243.37 407.31 243.01 C 406.59 244.40 406.45 246.38 404.82 247.07 C 403.22 247.51 401.55 247.58 399.92 247.75 C 400.17 246.71 400.47 245.67 400.82 244.66 Z"
     id="path250" />
  <path
     fill="#ffffff"
     d=" M 565.14 244.85 C 567.36 244.20 569.56 243.53 571.78 242.86 C 571.67 244.12 571.58 245.38 571.49 246.65 C 569.45 247.09 567.42 247.53 565.39 247.96 C 565.33 247.18 565.20 245.63 565.14 244.85 Z"
     id="path252" />
  <path
     fill="#ffffff"
     d=" M 622.30 244.39 C 624.69 243.88 627.09 243.43 629.52 243.13 C 628.80 244.49 628.19 245.95 627.16 247.11 C 625.58 247.52 623.94 247.66 622.34 247.88 C 622.32 246.72 622.31 245.55 622.30 244.39 Z"
     id="path254" />
  <path
     fill="#888888"
     d=" M 706.12 246.28 C 707.53 246.45 708.94 246.61 710.37 246.78 C 710.27 248.30 710.18 249.81 710.09 251.33 C 708.36 251.29 706.64 251.25 704.93 251.19 C 705.31 249.55 705.71 247.91 706.12 246.28 Z"
     id="path256" />
  <path
     style="fill:none;stroke:#000000;stroke-width:1px;stroke-linecap:butt;stroke-linejoin:miter;stroke-opacity:1"
     d="m 168.61632,142.09028 c 0,0 5.02083,-183.678822 0,0 z"
     id="path3078"
     transform="scale(0.8,0.8)" />
  <path
     sodipodi:nodetypes="ccscsscccssssc"
     id="path3121"
     d="m 528.55,190.37 c 0.89,-0.02 1.79,-0.04 2.69,-0.06 -0.39891,3.60329 -0.83024,4.16813 -0.13016,4.23942 1.02547,0.10442 3.30553,0.003 3.9469,0.83213 -0.60186,0.14977 -0.28377,2.36763 -1.10042,2.81972 -0.80397,0.44508 -2.746,-0.88319 -2.93013,0.21991 -0.28296,1.69514 -2.12184,10.81036 -1.63878,14.61545 -2.15,-0.16 -3.04741,0.12337 -5.17741,-0.13663 0.6484,-4.61834 2.19088,-13.75203 2.03508,-15.01679 -0.4618,-1.18652 -2.85698,-0.13329 -2.6445,-0.91924 0.18121,-0.6703 -0.31909,-1.80278 0.5971,-2.83166 0.52997,-0.59516 1.34988,-0.21303 3.45323,0.24227 0.14282,0.0309 0.53028,-0.77483 0.37958,-0.14844 -0.35351,1.46932 0.29038,-3.29728 0.51951,-3.85614 z"
     fill="#888888" />
  <path
     style="fill:#888888"
     d="m 365.14201,189.74465 c 0.89,-0.02 1.79,-0.04 2.69,-0.06 -0.39891,3.60329 -0.83024,4.16813 -0.13016,4.23942 1.02547,0.10442 3.30553,0.003 3.9469,0.83213 -0.60186,0.14977 -0.28377,2.36763 -1.10042,2.81972 -0.80397,0.44508 -2.746,-0.88319 -2.93013,0.21991 -0.28296,1.69514 -2.12184,10.81036 -1.63878,14.61545 -2.15,-0.16 -3.04741,0.12337 -5.17741,-0.13663 0.6484,-4.61834 2.19088,-13.75203 2.03508,-15.01679 -0.4618,-1.18652 -2.85698,-0.13329 -2.6445,-0.91924 0.18121,-0.6703 -0.31909,-1.80278 0.5971,-2.83166 0.52997,-0.59516 1.34988,-0.21303 3.45323,0.24227 0.14282,0.0309 0.53028,-0.77483 0.37958,-0.14844 -0.35351,1.46932 0.29038,-3.29728 0.51951,-3.85614 z"
     id="path100-0"
     sodipodi:nodetypes="ccscsscccssssc" />
  <path
     style="fill:#888888"
     d="m 528.45421,228.5313 c 0.89,-0.02 1.79,-0.04 2.69,-0.06 -0.39891,3.60329 -0.83024,4.16813 -0.13016,4.23942 1.02547,0.10442 3.30553,0.003 3.9469,0.83213 -0.60186,0.14977 -0.28377,2.36763 -1.10042,2.81972 -0.80397,0.44508 -2.746,-0.88319 -2.93013,0.21991 -0.28296,1.69514 -2.12184,10.81036 -1.63878,14.61545 -2.15,-0.16 -3.04741,0.12337 -5.17741,-0.13663 0.6484,-4.61834 2.19088,-13.75203 2.03508,-15.01679 -0.4618,-1.18652 -2.85698,-0.13329 -2.6445,-0.91924 0.18121,-0.6703 -0.31909,-1.80278 0.5971,-2.83166 0.52997,-0.59516 1.34988,-0.21303 3.45323,0.24227 0.14282,0.0309 0.53028,-0.77483 0.37958,-0.14844 -0.35351,1.46932 0.29038,-3.29728 0.51951,-3.85614 z"
     id="path100-4"
     sodipodi:nodetypes="ccscsscccssssc" />
  <path
     style="fill:#888888"
     d="m 655.67205,228.67922 c 0.89,-0.02 1.79,-0.04 2.69,-0.06 -0.39891,3.60329 -0.83024,4.16813 -0.13016,4.23942 1.02547,0.10442 3.30553,0.003 3.9469,0.83213 -0.60186,0.14977 -0.28377,2.36763 -1.10042,2.81972 -0.80397,0.44508 -2.746,-0.88319 -2.93013,0.21991 -0.28296,1.69514 -2.12184,10.81036 -1.63878,14.61545 -2.15,-0.16 -3.04741,0.12337 -5.17741,-0.13663 0.6484,-4.61834 2.19088,-13.75203 2.03508,-15.01679 -0.4618,-1.18652 -2.85698,-0.13329 -2.6445,-0.91924 0.18121,-0.6703 -0.31909,-1.80278 0.5971,-2.83166 0.52997,-0.59516 1.34988,-0.21303 3.45323,0.24227 0.14282,0.0309 0.53028,-0.77483 0.37958,-0.14844 -0.35351,1.46932 0.29038,-3.29728 0.51951,-3.85614 z"
     id="path100-8"
     sodipodi:nodetypes="ccscsscccssssc" />
  <path
     style="fill:#888888"
     d="m 674.1926,190.63221 c 0.89,-0.02 1.79,-0.04 2.69,-0.06 -0.39891,3.60329 -0.83024,4.16813 -0.13016,4.23942 1.02547,0.10442 3.30553,0.003 3.9469,0.83213 -0.60186,0.14977 -0.28377,2.36763 -1.10042,2.81972 -0.80397,0.44508 -2.746,-0.88319 -2.93013,0.21991 -0.28296,1.69514 -2.12184,10.81036 -1.63878,14.61545 -2.15,-0.16 -3.04741,0.12337 -5.17741,-0.13663 0.6484,-4.61834 2.19088,-13.75203 2.03508,-15.01679 -0.4618,-1.18652 -2.85698,-0.13329 -2.6445,-0.91924 0.18121,-0.6703 -0.31909,-1.80278 0.5971,-2.83166 0.52997,-0.59516 1.34988,-0.21303 3.45323,0.24227 0.14282,0.0309 0.53028,-0.77483 0.37958,-0.14844 -0.35351,1.46932 0.29038,-3.29728 0.51951,-3.85614 z"
     id="path100-45"
     sodipodi:nodetypes="ccscsscccssssc" />
  <path
     style="fill:#888888"
     d="m 607.98015,190.21801 c 0.89,-0.02 1.79,-0.04 2.69,-0.06 -0.39891,3.60329 -0.83024,4.16813 -0.13016,4.23942 1.02547,0.10442 3.30553,0.003 3.9469,0.83213 -0.60186,0.14977 -0.28377,2.36763 -1.10042,2.81972 -0.80397,0.44508 -2.746,-0.88319 -2.93013,0.21991 -0.28296,1.69514 -2.12184,10.81036 -1.63878,14.61545 -2.15,-0.16 -3.04741,0.12337 -5.17741,-0.13663 0.6484,-4.61834 2.19088,-13.75203 2.03508,-15.01679 -0.4618,-1.18652 -2.85698,-0.13329 -2.6445,-0.91924 0.18121,-0.6703 -0.31909,-1.80278 0.5971,-2.83166 0.52997,-0.59516 1.34988,-0.21303 3.45323,0.24227 0.14282,0.0309 0.53028,-0.77483 0.37958,-0.14844 -0.35351,1.46932 0.29038,-3.29728 0.51951,-3.85614 z"
     id="path100-1"
     sodipodi:nodetypes="ccscsscccssssc" />
  <path
     style="fill:#888888"
     d="m 276.5319,189.6705 c 0.93482,-0.0417 1.88019,-0.0836 2.82553,-0.12552 -0.33265,3.67791 -0.77238,4.26328 -0.0349,4.31908 1.08019,0.0818 3.47392,-0.0761 4.16787,0.75259 -0.6289,0.1669 -0.24132,2.41718 -1.0887,2.897 -0.83421,0.47238 -2.90705,-0.83334 -3.07405,0.29409 -0.25664,1.73253 -1.97013,11.0564 -1.37106,14.91863 -2.26332,-0.11137 -3.19961,0.19862 -5.44431,-0.015 0.57044,-4.71726 1.97201,-14.05284 1.77789,-15.33671 -0.51384,-1.19688 -3.00568,-0.0672 -2.80126,-0.87247 0.17434,-0.68674 -0.37865,-1.82769 0.55948,-2.8971 0.54265,-0.6186 1.41349,-0.24921 3.63489,0.1639 0.15083,0.028 0.53865,-0.80152 0.39533,-0.16021 -0.33619,1.50432 0.22594,-3.36378 0.45332,-3.93822 z"
     id="path100-11"
     sodipodi:nodetypes="ccscsscccssssc" />
  <path
     style="fill:#888888;fill-opacity:1"
     d="m 413.90771,265.45803 c 0.043,-0.20136 0.37236,-2.34306 0.73185,-4.75934 1.29679,-8.71634 2.78568,-15.39433 3.51725,-15.77565 0.18729,-0.0976 1.17724,-0.24551 2.1999,-0.32866 l 1.85937,-0.15116 -0.15093,1.74709 c -0.22749,2.63322 -1.03319,7.37133 -2.35149,13.82848 l -1.18523,5.80534 -2.34947,0 c -2.12794,0 -2.34211,-0.0345 -2.27125,-0.3661 z"
     id="path3197"
     transform="scale(0.8,0.8)" />
  <path
     style="fill:#888888;fill-opacity:1"
     d="m 470.69565,266.42662 c -1.77516,-0.22185 -4.07076,-1.35369 -5.17477,-2.55139 -0.46098,-0.50011 -1.06177,-1.46649 -1.33508,-2.14751 -0.4367,-1.08817 -0.49571,-1.56782 -0.48691,-3.95784 0.009,-2.3873 0.0768,-2.90642 0.55655,-4.24831 1.76972,-4.94989 5.82974,-8.71669 10.18746,-9.45172 1.25433,-0.21157 1.8107,-0.19647 3.52455,0.0956 1.1193,0.19077 2.41823,0.51632 2.88652,0.72345 0.99433,0.43979 2.27263,1.68737 2.8149,2.74722 0.97319,1.90209 1.34058,5.56003 0.79557,7.92114 l -0.24513,1.06197 -7.59992,0 -7.59992,0 0.001,1.0983 c 8.1e-4,0.60407 0.0627,1.74702 0.1376,2.53988 l 0.13612,1.44158 2.32051,-0.12473 c 1.58986,-0.0854 3.30857,-0.36291 5.45854,-0.88121 3.84705,-0.92742 5.69686,-1.27091 5.87654,-1.09123 0.2427,0.2427 -0.9579,2.02704 -2.15977,3.20985 -2.74025,2.69682 -6.54352,4.05875 -10.09485,3.61491 z m 8.94703,-13.4688 c 0.0322,-0.0258 -0.005,-0.95213 -0.0829,-2.05851 l -0.1414,-2.01159 -1.90455,0.11417 c -3.37079,0.20206 -6.69086,0.71896 -6.97768,1.08635 -0.15082,0.19319 -0.2615,0.93805 -0.2615,1.75988 l 0,1.42493 4.65473,-0.13416 c 2.5601,-0.0738 4.68107,-0.15526 4.71327,-0.18107 l 0,0 z"
     id="path3199"
     transform="scale(0.8,0.8)" />
  <path
     style="fill:#888888;fill-opacity:1"
     d="m 486.59239,266.3344 c 0,-0.44103 5.03497,-26.676 5.54823,-28.90936 0.10478,-0.45593 0.18687,-0.4707 2.61461,-0.4707 1.37854,0 2.50643,0.0601 2.50643,0.13366 0,0.26894 -0.87626,5.31969 -1.7008,9.8034 -1.01141,5.49987 -2.17038,10.99258 -3.33668,15.81358 l -0.85581,3.53755 -1.91729,0.003 c -1.05451,0.002 -2.1291,0.0596 -2.38799,0.12899 -0.25888,0.0694 -0.4707,0.0514 -0.4707,-0.04 z"
     id="path3201"
     transform="scale(0.8,0.8)" />
  <path
     style="fill:#888888;fill-opacity:1"
     d="m 498.10097,266.00066 c 0.009,-1.05124 5.54508,-28.33545 5.84865,-28.82663 0.0964,-0.15603 1.00537,-0.21335 2.75811,-0.17391 l 2.61427,0.0588 -0.69344,3.03342 c -0.38139,1.66838 -1.44207,6.75197 -2.35706,11.29687 -0.91499,4.5449 -1.95148,9.60825 -2.30331,11.25189 -0.35183,1.64364 -0.63969,3.02418 -0.63969,3.06787 0,0.0437 -0.72959,0.13842 -1.62131,0.21052 -0.89172,0.0721 -2.06848,0.18309 -2.61502,0.24668 -0.7505,0.0873 -0.99309,0.0468 -0.9912,-0.16553 z"
     id="path3203"
     transform="scale(0.8,0.8)" />
  <path
     style="fill:#888888;fill-opacity:1"
     d="m 524.98084,274.90552 c -2.32466,-0.51814 -3.97475,-1.40162 -4.59519,-2.46032 -0.49166,-0.83895 -1.31354,-4.02469 -1.09477,-4.24346 0.0552,-0.0552 1.16976,0.14768 2.47677,0.45087 4.76232,1.10474 8.25803,1.77034 9.30713,1.77212 1.00986,0.002 1.11596,-0.0506 1.80004,-0.88728 0.87748,-1.07324 3.52495,-4.81325 3.45364,-4.87887 -0.0279,-0.0257 -1.41578,0.22402 -3.08416,0.55487 -3.59671,0.71326 -6.46588,0.80573 -8.06751,0.26 -0.67833,-0.23113 -1.39665,-0.71813 -2.10703,-1.42851 -0.98141,-0.98141 -1.11037,-1.22414 -1.44171,-2.71342 -0.4833,-2.17237 -0.33595,-5.68556 0.32048,-7.64107 1.34134,-3.99582 3.87444,-7.15398 6.96205,-8.67996 l 1.61925,-0.80028 5.61936,0.27421 c 3.09065,0.15081 6.14906,0.21195 6.79647,0.13586 0.81319,-0.0956 1.17711,-0.0657 1.17711,0.0965 0,0.12918 -0.23869,1.65979 -0.53043,3.40135 -1.7155,10.24097 -3.71796,19.12148 -4.78565,21.22343 -1.17434,2.31193 -3.61775,4.2612 -6.5038,5.18853 -2.1507,0.69105 -5.20365,0.84758 -7.32205,0.37541 z m 7.92732,-14.01418 c 0.63065,-0.3088 1.61412,-0.99625 2.18548,-1.52766 1.43621,-1.33577 1.70443,-2.31364 1.85736,-6.77154 l 0.12021,-3.50412 -1.96575,-0.0343 c -4.11669,-0.0719 -5.04305,0.17417 -6.2027,1.64773 -1.89563,2.40876 -2.61937,5.70457 -1.83368,8.35029 0.72479,2.44065 3.08989,3.18578 5.83908,1.83964 z"
     id="path3205"
     transform="scale(0.8,0.8)" />
  <path
     style="fill:#888888;fill-opacity:1"
     d="m 552.84962,266.45512 c -2.3065,-0.41473 -4.87737,-2.09555 -5.89807,-3.85611 -0.94775,-1.63474 -1.19298,-4.58124 -0.61595,-7.40067 1.45592,-7.11374 6.64745,-11.45181 13.25617,-11.07693 2.95915,0.16786 4.89542,1.09239 6.57141,3.13771 0.71494,0.87249 0.77107,1.04787 0.89526,2.7975 0.0729,1.02666 0.0645,2.95535 -0.0187,4.28598 l -0.15116,2.41933 -5.36838,-0.0113 c -5.59594,-0.0118 -10.91626,0.37442 -10.90737,0.79181 0.008,0.363 2.428,3.50336 3.1135,4.03984 0.59054,0.46217 0.69848,0.4761 2.03457,0.26266 0.77601,-0.12397 3.13139,-0.78561 5.23417,-1.47031 2.10277,-0.6847 3.963,-1.24492 4.13384,-1.24492 0.80066,0 -0.91205,2.94369 -2.59099,4.4532 -2.42096,2.17665 -6.62513,3.42303 -9.68833,2.87224 z m 9.47367,-13.63573 c 0,-0.1339 -0.16195,-1.08827 -0.35988,-2.12081 l -0.35989,-1.87735 -1.99363,0.12289 c -1.0965,0.0676 -2.5114,0.23133 -3.14424,0.36387 -1.31456,0.27532 -3.57618,1.31596 -4.08722,1.88065 -0.32794,0.36237 -0.27992,0.4009 0.98211,0.78807 0.72979,0.22388 2.03296,0.52127 2.89591,0.66085 0.86296,0.13958 1.71022,0.28145 1.88281,0.31527 0.1726,0.0338 1.18461,0.0724 2.24892,0.0857 1.34602,0.0169 1.93511,-0.0498 1.93511,-0.21919 z"
     id="path3207"
     transform="scale(0.8,0.8)" />
  <path
     style="fill:#888888;fill-opacity:1"
     d="m 569.30498,265.45803 c 0.0612,-0.31642 0.44916,-2.45812 0.86213,-4.75934 0.41296,-2.30121 1.3353,-6.80592 2.04965,-10.01047 l 1.29881,-5.82645 4.49783,-0.0508 c 2.82121,-0.0319 5.39276,-0.18038 6.89864,-0.39839 2.18206,-0.31591 2.5021,-0.31813 3.51236,-0.0244 1.31738,0.38297 2.64085,1.58851 2.94224,2.68006 0.26018,0.9423 -0.0332,4.90668 -0.59779,8.07644 -0.38921,2.18534 -1.9568,9.62437 -2.21737,10.5226 -0.0928,0.3199 -0.39516,0.3661 -2.3958,0.3661 l -2.28959,0 0.107,-0.78451 c 0.0589,-0.43147 0.19906,-1.49056 0.31158,-2.35351 0.11251,-0.86296 0.44411,-3.12233 0.73687,-5.02083 0.29277,-1.89851 0.59085,-4.58902 0.66241,-5.97891 l 0.13012,-2.52709 -1.48252,-0.24483 c -3.66838,-0.60582 -5.17496,-0.0843 -6.28198,2.17475 -1.16361,2.37448 -1.72408,4.47961 -2.75337,10.3417 -0.35355,2.01356 -0.69336,3.82577 -0.75512,4.02713 -0.0991,0.32318 -0.4192,0.3661 -2.72984,0.3661 l -2.61755,0 0.11129,-0.5753 0,0 z"
     id="path3209"
     transform="scale(0.8,0.8)" />
  <path
     style="fill:#888888;fill-opacity:1"
     d="m 578.5382,321.8442 c 1.53565,-9.46178 3.38144,-18.97928 4.81949,-24.85084 l 0.94832,-3.87201 3.35881,-0.73221 c 1.90165,-0.015 2.72779,-0.037 4.9412,-0.31723 2.03704,-0.25789 5.70578,0.12024 5.99214,0.19212 0.77608,0.19478 3.59908,3.03649 4.08871,4.11581 0.78121,1.72205 0.48292,5.6057 -0.68948,8.97694 -1.17264,3.37193 -3.38726,6.24681 -6.0021,7.79155 -2.60836,1.54091 -4.48486,1.51131 -8.67243,-0.1368 -1.26567,-0.49814 -2.34406,-0.86585 -2.39641,-0.81715 -0.0524,0.0487 -0.33613,2.41491 -0.6306,5.25825 l -0.53541,5.16971 -2.68379,0.0587 -2.68379,0.0587 0.14534,-0.8955 0,0 0,-4e-5 z m 14.50022,-12.10208 c 2.95954,-1.4789 4.37036,-4.58523 4.16892,-9.17909 -0.10317,-2.35275 -0.11615,-2.40431 -0.74726,-2.96821 -1.70752,-1.52567 -4.44078,-1.28073 -6.5146,0.58381 -1.2789,1.14984 -2.146,2.85728 -2.74313,5.40159 -0.63605,2.71013 -0.22371,4.42038 1.37289,5.69434 1.55585,1.24145 2.67903,1.35911 4.46318,0.46756 z"
     id="path3213"
     transform="scale(0.8,0.8)"
     sodipodi:nodetypes="ccccsssssssccccccccsssssc" />
  <path
     style="fill:#888888;fill-opacity:1"
     d="m 546.68987,313.72133 c -1.95295,-0.98865 -3.34551,-3.46279 -3.54282,-6.29443 -0.42537,-6.10485 2.72649,-12.07268 7.63349,-14.45352 1.62264,-0.78729 1.97001,-0.87902 3.2793,-0.86591 1.24615,0.0125 1.81929,0.16063 3.84553,0.99401 1.30962,0.53864 2.40471,0.95255 2.43353,0.91979 0.0288,-0.0328 0.49234,-1.94237 1.03006,-4.24358 0.53771,-2.30122 1.02582,-4.34878 1.08469,-4.55013 0.0939,-0.32108 0.40117,-0.36611 2.49876,-0.36611 1.31544,0 2.39172,0.0854 2.39172,0.18978 0,0.10438 -0.23738,1.82244 -0.52751,3.81793 -0.93091,6.40269 -2.38497,13.74633 -4.28918,21.6623 l -0.86581,3.59927 -1.39508,-0.14744 c -1.83236,-0.19366 -5.20914,-0.1867 -9.34473,0.0192 -3.18347,0.15853 -3.39051,0.14477 -4.23195,-0.2812 l 0,0 z m 7.99428,-4.40784 c 0.45843,-0.12727 1.06718,-0.41521 1.35277,-0.63985 0.74631,-0.58705 2.04309,-2.61349 2.45315,-3.83345 0.43992,-1.30881 0.47836,-3.96005 0.0943,-6.50438 l -0.28709,-1.90194 -1.07272,0.0892 c -0.59,0.0491 -1.96707,0.21459 -3.06014,0.36783 l -1.98742,0.27862 -1.06797,1.1685 c -1.44112,1.57676 -1.89335,3.11537 -2.18092,7.42006 -0.11828,1.77052 -0.17646,3.25771 -0.1293,3.30487 0.13589,0.1359 2.63796,0.42871 3.9012,0.45655 0.63283,0.014 1.52569,-0.0788 1.98412,-0.20603 l 0,0 z"
     id="path3215"
     transform="scale(0.8,0.8)" />
  <path
     style="fill:#888888;fill-opacity:1"
     d="m 375.08805,313.71639 c -1.9469,-0.61403 -4.23346,-0.69607 -8.25991,-0.29635 -3.59148,0.35654 -7.69253,0.35248 -8.55587,-0.008 -0.36656,-0.15325 -0.3867,-0.37572 -0.29435,-3.25269 0.0905,-2.81957 0.14817,-3.18842 0.66302,-4.24074 1.17304,-2.39761 4.44195,-3.79621 12.3213,-5.27169 1.73713,-0.32529 2.05874,-0.4481 2.13247,-0.81429 0.17246,-0.85656 0.34227,-3.46464 0.22558,-3.46464 -0.5102,0 -10.37144,2.49 -12.92864,3.26453 -0.52154,0.15797 -0.46237,-0.23612 0.26694,-1.77775 2.19479,-4.63939 8.99754,-7.30398 13.87854,-5.43613 1.39342,0.53323 3.05026,1.92997 3.79322,3.19772 0.49536,0.84527 0.50496,0.9376 0.29675,2.8523 -0.11835,1.08832 -0.54574,3.95571 -0.94976,6.37199 -0.40402,2.41627 -0.86887,5.46739 -1.03299,6.78027 -0.16412,1.31287 -0.32255,2.40319 -0.35205,2.42292 -0.0295,0.0197 -0.57142,-0.12741 -1.20425,-0.32699 z m -7.1352,-4.19099 c 1.86898,-0.42398 3.41194,-1.95001 4.53169,-4.48196 l 0.50622,-1.14466 -0.72238,0 c -1.36929,0 -5.38243,0.65058 -6.85174,1.11074 -1.25605,0.39338 -1.53209,0.56881 -1.87564,1.19197 -0.75562,1.37064 -0.099,3.40135 1.16528,3.60389 0.62182,0.0996 2.15679,-0.0328 3.24657,-0.27998 l 0,0 z"
     id="path3217"
     transform="scale(0.8,0.8)" />
  <path
     style="fill:#888888"
     d="m 478.828,190.09668 c 0.89,-0.02 1.79,-0.04 2.69,-0.06 -0.39891,3.60329 -0.83024,4.16813 -0.13016,4.23942 1.02547,0.10442 3.30553,0.003 3.9469,0.83213 -0.60186,0.14977 -0.28377,2.36763 -1.10042,2.81972 -0.80397,0.44509 -2.746,-0.88319 -2.93013,0.21991 -0.28296,1.69514 -2.12184,10.81036 -1.63878,14.61545 -2.15,-0.16 -3.04741,0.12337 -5.17741,-0.13663 0.6484,-4.61834 2.19088,-13.75202 2.03508,-15.01679 -0.4618,-1.18652 -2.85698,-0.13329 -2.6445,-0.91924 0.18121,-0.6703 -0.31909,-1.80278 0.5971,-2.83166 0.52997,-0.59516 1.34988,-0.21303 3.45323,0.24227 0.14282,0.0309 0.53028,-0.77483 0.37958,-0.14844 -0.35351,1.46932 0.29038,-3.29728 0.51951,-3.85614 z"
     id="path100-0-2"
     sodipodi:nodetypes="ccscsscccssssc" />
  <path
     style="fill:#000000"
     d="m 675.19418,252.91805 c -0.34008,-0.0129 -1.84204,-0.11218 -2.06986,-0.13675 -0.0451,-0.005 -0.0391,-0.0235 0.10164,-0.31453 0.0823,-0.17015 0.38728,-0.73696 0.67775,-1.25958 0.29047,-0.52262 0.58778,-1.07649 0.66071,-1.23082 l 0.13258,-0.28061 0.16573,-0.0362 c 0.0911,-0.0199 0.47398,-0.11074 0.85073,-0.2019 1.00446,-0.24302 1.44962,-0.33693 1.45939,-0.30786 0.0217,0.61855 -0.0172,1.23978 -0.0358,1.85853 l -0.0659,1.85834 c -0.25418,0.0523 -0.52071,0.0283 -0.77915,0.0423 -0.33804,0.007 -0.62641,0.016 -0.64082,0.0194 -0.0144,0.003 -0.2201,-0.001 -0.45709,-0.0103 l 0,0 1.1e-4,-4e-5 z"
     id="path3152"
     transform="scale(0.8,0.8)"
     sodipodi:nodetypes="cssscccsccccsccc" />
  <path
     sodipodi:type="arc"
     style="fill:#000000"
     id="path3154"
     sodipodi:cx="15.711029"
     sodipodi:cy="110.09238"
     sodipodi:rx="2.276"
     sodipodi:ry="1.3479223"
     d="m 17.987029,110.09238 a 2.276,1.3479223 0 1 1 -4.552,0 2.276,1.3479223 0 1 1 4.552,0 z"
     transform="matrix(0.8,0,0,0.8,-0.42426407,-0.10606602)" />
  <path
     style="fill:#363636;fill-opacity:1"
     d="m 14.74924,111.25379 c -1.542883,-0.18692 -2.310918,-1.25834 -1.440495,-2.00951 0.757335,-0.65357 2.22498,-0.7955 3.244445,-0.31376 1.182214,0.55864 1.145703,1.55899 -0.07664,2.09969 -0.437885,0.1937 -1.180535,0.28983 -1.727314,0.22358 z"
     id="path3160"
     transform="scale(0.8,0.8)" />
  <path
     sodipodi:type="arc"
     style="fill:#363636;fill-opacity:1"
     id="path3162"
     sodipodi:cx="308.74051"
     sodipodi:cy="73.985733"
     sodipodi:rx="1.8561553"
     sodipodi:ry="1.7898641"
     d="m 310.59666,73.985733 a 1.8561553,1.7898641 0 1 1 -3.71231,0 1.8561553,1.7898641 0 1 1 3.71231,0 z"
     transform="matrix(0.8,0,0,0.8,-1.5556349,0.84852814)" />
</svg>
